<?xml version="1.0" encoding="UTF-8"?>
<!DOCTYPE svg PUBLIC "-//W3C//DTD SVG 1.1//EN" "http://www.w3.org/Graphics/SVG/1.1/DTD/svg11.dtd">
<svg xmlns="http://www.w3.org/2000/svg" version="1.1" width="640px" height="395px" style="shape-rendering:geometricPrecision; text-rendering:geometricPrecision; image-rendering:optimizeQuality; fill-rule:evenodd; clip-rule:evenodd" xmlns:xlink="http://www.w3.org/1999/xlink">
<g><path style="opacity:0.012" fill="#fefffe" d="M 230.5,0.5 C 230.5,0.166667 230.5,-0.166667 230.5,-0.5C 231.833,-0.5 233.167,-0.5 234.5,-0.5C 233.432,0.434475 232.099,0.767809 230.5,0.5 Z"/></g>
<g><path style="opacity:1" fill="#010101" d="M 240.5,-0.5 C 257.833,-0.5 275.167,-0.5 292.5,-0.5C 315.44,4.30332 336.107,13.97 354.5,28.5C 359.195,33.5261 363.861,38.5261 368.5,43.5C 370.055,46.9396 371.888,50.2729 374,53.5C 374.804,54.8045 375.971,55.4712 377.5,55.5C 407.292,47.2143 436.959,47.5476 466.5,56.5C 471.591,59.2039 476.924,61.5373 482.5,63.5C 494.169,70.5114 504.502,79.1781 513.5,89.5C 514.34,91.8525 515.674,93.8525 517.5,95.5C 531.65,95.5228 545.984,95.6894 560.5,96C 581.828,99.0438 600.828,107.211 617.5,120.5C 620.5,124.167 623.833,127.5 627.5,130.5C 627.738,132.404 628.738,133.738 630.5,134.5C 630.75,136.674 631.75,138.341 633.5,139.5C 633.992,141.819 634.992,143.819 636.5,145.5C 637.13,149.048 638.13,152.381 639.5,155.5C 639.5,162.5 639.5,169.5 639.5,176.5C 637.928,179.215 636.928,182.215 636.5,185.5C 632.668,192.5 628.334,199.166 623.5,205.5C 622.833,205.5 622.5,205.833 622.5,206.5C 621.833,206.5 621.5,206.833 621.5,207.5C 620.833,207.5 620.5,207.833 620.5,208.5C 614.143,213.198 607.81,217.865 601.5,222.5C 600.508,222.328 599.842,222.662 599.5,223.5C 575.709,234.743 550.709,238.743 524.5,235.5C 523.463,242.98 521.796,250.314 519.5,257.5C 518.662,257.842 518.328,258.508 518.5,259.5C 516.659,261.849 515.326,264.515 514.5,267.5C 512.75,268.659 511.75,270.326 511.5,272.5C 510.094,272.973 509.427,273.973 509.5,275.5C 508.833,275.5 508.5,275.833 508.5,276.5C 507.094,276.973 506.427,277.973 506.5,279.5C 505.833,279.5 505.5,279.833 505.5,280.5C 502.781,282.219 500.781,284.553 499.5,287.5C 498.833,287.5 498.5,287.833 498.5,288.5C 497.833,288.5 497.5,288.833 497.5,289.5C 496.833,289.5 496.5,289.833 496.5,290.5C 495.833,290.5 495.5,290.833 495.5,291.5C 492.553,292.781 490.219,294.781 488.5,297.5C 485.19,299.482 482.19,301.815 479.5,304.5C 477.973,304.427 476.973,305.094 476.5,306.5C 471.5,308.664 466.833,311.331 462.5,314.5C 461.508,314.328 460.842,314.662 460.5,315.5C 459.508,315.328 458.842,315.662 458.5,316.5C 423.22,331.327 386.553,336.16 348.5,331C 335.215,328.911 322.215,325.744 309.5,321.5C 307.574,319.707 305.241,318.707 302.5,318.5C 298.388,315.941 294.054,313.608 289.5,311.5C 288.537,311.97 288.537,312.637 289.5,313.5C 288.178,313.67 287.011,313.337 286,312.5C 285.5,313.667 284.667,314.5 283.5,315C 275.292,318.015 266.958,320.515 258.5,322.5C 257.903,321.861 257.07,321.528 256,321.5C 227.582,327.491 199.416,326.491 171.5,318.5C 167.466,316.263 163.132,314.596 158.5,313.5C 156.151,311.659 153.485,310.326 150.5,309.5C 146.836,306.665 142.836,304.332 138.5,302.5C 132.562,297.901 126.895,292.901 121.5,287.5C 119.471,285.142 117.471,282.808 115.5,280.5C 114.974,278.77 113.974,277.436 112.5,276.5C 112.25,274.326 111.25,272.659 109.5,271.5C 107.575,266.897 105.742,262.23 104,257.5C 103.519,255.522 102.353,254.189 100.5,253.5C 82.6359,255.505 64.9692,254.505 47.5,250.5C 44.4701,248.597 41.1368,247.263 37.5,246.5C 32.6737,243.252 27.6737,240.252 22.5,237.5C 18.8592,234.195 15.1925,230.862 11.5,227.5C 9.82296,225.46 8.15629,223.46 6.5,221.5C 6.25027,219.326 5.25027,217.659 3.5,216.5C 2.54118,212.617 1.20784,208.95 -0.5,205.5C -0.5,198.833 -0.5,192.167 -0.5,185.5C 0.434475,184.432 0.767809,183.099 0.5,181.5C 2.5395,176.418 4.87283,171.418 7.5,166.5C 19.575,153.278 34.2417,143.778 51.5,138C 52.8876,134.283 53.8876,130.45 54.5,126.5C 66.7334,103.124 85.7334,87.9571 111.5,81C 118.685,78.858 126.018,77.6913 133.5,77.5C 140.167,77.5 146.833,77.5 153.5,77.5C 153.5,76.1667 153.5,74.8333 153.5,73.5C 154.767,60.6346 159.6,49.3013 168,39.5C 187.916,18.459 212.082,5.12562 240.5,-0.5 Z M 302.5,318.5 C 305.241,318.707 307.574,319.707 309.5,321.5C 306.759,321.293 304.426,320.293 302.5,318.5 Z"/></g>
<g><path style="opacity:0.009" fill="#fefffe" d="M 297.5,-0.5 C 299.167,-0.5 300.833,-0.5 302.5,-0.5C 302.5,-0.166667 302.5,0.166667 302.5,0.5C 300.585,0.784479 298.919,0.451145 297.5,-0.5 Z"/></g>
<g><path style="opacity:0.013" fill="#fefffe" d="M 230.5,0.5 C 229.749,1.57346 228.749,1.74012 227.5,1C 228.448,0.517215 229.448,0.350549 230.5,0.5 Z"/></g>
<g><path style="opacity:0.014" fill="#fefffe" d="M 302.5,0.5 C 303.552,0.350549 304.552,0.517215 305.5,1C 304.251,1.74012 303.251,1.57346 302.5,0.5 Z"/></g>
<g><path style="opacity:0.013" fill="#fefffe" d="M 223.5,2.5 C 224.251,1.42654 225.251,1.25988 226.5,2C 225.552,2.48278 224.552,2.64945 223.5,2.5 Z"/></g>
<g><path style="opacity:0.01" fill="#fefffe" d="M 309.5,2.5 C 308.448,2.64945 307.448,2.48278 306.5,2C 307.749,1.25988 308.749,1.42654 309.5,2.5 Z"/></g>
<g><path style="opacity:0.013" fill="#fefffe" d="M 220.5,3.5 C 221.209,2.59603 222.209,2.26269 223.5,2.5C 222.791,3.40397 221.791,3.73731 220.5,3.5 Z"/></g>
<g><path style="opacity:0.013" fill="#fefffe" d="M 309.5,2.5 C 310.791,2.26269 311.791,2.59603 312.5,3.5C 311.209,3.73731 310.209,3.40397 309.5,2.5 Z"/></g>
<g><path style="opacity:0.013" fill="#fefffe" d="M 217.5,4.5 C 218.209,3.59603 219.209,3.26269 220.5,3.5C 219.791,4.40397 218.791,4.73731 217.5,4.5 Z"/></g>
<g><path style="opacity:0.013" fill="#fefffe" d="M 312.5,3.5 C 313.791,3.26269 314.791,3.59603 315.5,4.5C 314.209,4.73731 313.209,4.40397 312.5,3.5 Z"/></g>
<g><path style="opacity:0.014" fill="#fefffe" d="M 217.5,4.5 C 217.103,5.52502 216.437,5.69169 215.5,5C 216.094,4.53566 216.761,4.36899 217.5,4.5 Z"/></g>
<g><path style="opacity:0.014" fill="#fefffe" d="M 315.5,4.5 C 316.239,4.36899 316.906,4.53566 317.5,5C 316.563,5.69169 315.897,5.52502 315.5,4.5 Z"/></g>
<g><path style="opacity:0.012" fill="#fefffe" d="M 205.5,9.5 C 205.897,8.47498 206.563,8.30831 207.5,9C 206.906,9.46434 206.239,9.63101 205.5,9.5 Z"/></g>
<g><path style="opacity:0.012" fill="#fefffe" d="M 327.5,9.5 C 326.761,9.63101 326.094,9.46434 325.5,9C 326.437,8.30831 327.103,8.47498 327.5,9.5 Z"/></g>
<g><path style="opacity:0.012" fill="#fefffe" d="M 203.5,10.5 C 203.842,9.66175 204.508,9.32842 205.5,9.5C 205.158,10.3382 204.492,10.6716 203.5,10.5 Z"/></g>
<g><path style="opacity:0.012" fill="#fefffe" d="M 327.5,9.5 C 328.492,9.32842 329.158,9.66175 329.5,10.5C 328.508,10.6716 327.842,10.3382 327.5,9.5 Z"/></g>
<g><path style="opacity:0.012" fill="#fefffe" d="M 201.5,11.5 C 201.842,10.6618 202.508,10.3284 203.5,10.5C 203.158,11.3382 202.492,11.6716 201.5,11.5 Z"/></g>
<g><path style="opacity:0.01" fill="#fefffe" d="M 329.5,10.5 C 330.492,10.3284 331.158,10.6618 331.5,11.5C 330.508,11.6716 329.842,11.3382 329.5,10.5 Z"/></g>
<g><path style="opacity:0.01" fill="#fefffe" d="M 199.5,12.5 C 199.842,11.6618 200.508,11.3284 201.5,11.5C 201.158,12.3382 200.492,12.6716 199.5,12.5 Z"/></g>
<g><path style="opacity:0.012" fill="#fefffe" d="M 331.5,11.5 C 332.492,11.3284 333.158,11.6618 333.5,12.5C 332.508,12.6716 331.842,12.3382 331.5,11.5 Z"/></g>
<g><path style="opacity:0.016" fill="#fefffe" d="M 199.5,12.5 C 198.833,13.1667 198.833,13.1667 199.5,12.5 Z"/></g>
<g><path style="opacity:0.012" fill="#fefffe" d="M 333.5,12.5 C 334.833,13.1667 334.833,13.1667 333.5,12.5 Z"/></g>
<g><path style="opacity:0.016" fill="#fefffe" d="M 335.5,13.5 C 336.833,14.1667 336.833,14.1667 335.5,13.5 Z"/></g>
<g><path style="opacity:0.016" fill="#fefffe" d="M 191.5,16.5 C 192.833,17.1667 192.833,17.1667 191.5,16.5 Z"/></g>
<g><path style="opacity:0.004" fill="#fefffe" d="M 176.5,27.5 C 177.833,28.1667 177.833,28.1667 176.5,27.5 Z"/></g>
<g><path style="opacity:0.004" fill="#fefffe" d="M 354.5,28.5 C 355.167,27.1667 355.833,27.1667 356.5,28.5C 355.833,28.5 355.167,28.5 354.5,28.5 Z"/></g>
<g><path style="opacity:0.004" fill="#fefffe" d="M 176.5,28.5 C 175.833,29.1667 175.833,29.1667 176.5,28.5 Z"/></g>
<g><path style="opacity:0.004" fill="#fefffe" d="M 356.5,28.5 C 357.167,28.5 357.5,28.8333 357.5,29.5C 357.167,29.1667 356.833,28.8333 356.5,28.5 Z"/></g>
<g><path style="opacity:0.004" fill="#fefffe" d="M 175.5,29.5 C 174.833,30.1667 174.833,30.1667 175.5,29.5 Z"/></g>
<g><path style="opacity:0.004" fill="#fefffe" d="M 357.5,29.5 C 358.167,29.5 358.5,29.8333 358.5,30.5C 358.167,30.1667 357.833,29.8333 357.5,29.5 Z"/></g>
<g><path style="opacity:0.008" fill="#fefffe" d="M 174.5,30.5 C 173.833,31.1667 173.833,31.1667 174.5,30.5 Z"/></g>
<g><path style="opacity:0.008" fill="#fefffe" d="M 358.5,30.5 C 359.167,30.5 359.5,30.8333 359.5,31.5C 359.167,31.1667 358.833,30.8333 358.5,30.5 Z"/></g>
<g><path style="opacity:0.008" fill="#fefffe" d="M 173.5,31.5 C 172.833,32.1667 172.833,32.1667 173.5,31.5 Z"/></g>
<g><path style="opacity:0.004" fill="#fefffe" d="M 359.5,31.5 C 360.167,31.5 360.5,31.8333 360.5,32.5C 360.167,32.1667 359.833,31.8333 359.5,31.5 Z"/></g>
<g><path style="opacity:0.008" fill="#fefffe" d="M 172.5,32.5 C 171.833,33.1667 171.833,33.1667 172.5,32.5 Z"/></g>
<g><path style="opacity:0.004" fill="#fefffe" d="M 360.5,32.5 C 361.167,32.5 361.5,32.8333 361.5,33.5C 361.167,33.1667 360.833,32.8333 360.5,32.5 Z"/></g>
<g><path style="opacity:0.008" fill="#fefffe" d="M 171.5,33.5 C 170.833,34.1667 170.833,34.1667 171.5,33.5 Z"/></g>
<g><path style="opacity:0.004" fill="#fefffe" d="M 361.5,33.5 C 362.167,33.5 362.5,33.8333 362.5,34.5C 362.167,34.1667 361.833,33.8333 361.5,33.5 Z"/></g>
<g><path style="opacity:0.004" fill="#fefffe" d="M 170.5,34.5 C 169.833,35.1667 169.833,35.1667 170.5,34.5 Z"/></g>
<g><path style="opacity:0.004" fill="#fefffe" d="M 362.5,34.5 C 363.833,35.1667 363.833,35.1667 362.5,34.5 Z"/></g>
<g><path style="opacity:0.004" fill="#fefffe" d="M 169.5,35.5 C 168.833,36.1667 168.833,36.1667 169.5,35.5 Z"/></g>
<g><path style="opacity:0.012" fill="#fefffe" d="M 165.5,39.5 C 166.833,40.1667 166.833,40.1667 165.5,39.5 Z"/></g>
<g><path style="opacity:0.004" fill="#fefffe" d="M 165.5,40.5 C 164.833,41.1667 164.833,41.1667 165.5,40.5 Z"/></g>
<g><path style="opacity:0.012" fill="#fefffe" d="M 369.5,43.5 C 368.833,42.1667 368.833,42.1667 369.5,43.5 Z"/></g>
<g><path style="opacity:0.008" fill="#fefffe" d="M 369.5,43.5 C 370.833,44.1667 370.833,44.1667 369.5,43.5 Z"/></g>
<g><path style="opacity:0.014" fill="#fefffe" d="M 403.5,48.5 C 415.167,47.1667 426.833,47.1667 438.5,48.5C 426.833,48.5 415.167,48.5 403.5,48.5 Z"/></g>
<g><path style="opacity:0.012" fill="#fefffe" d="M 395.5,49.5 C 397.948,48.5269 400.615,48.1936 403.5,48.5C 401.052,49.4731 398.385,49.8064 395.5,49.5 Z"/></g>
<g><path style="opacity:0.014" fill="#fefffe" d="M 438.5,48.5 C 440.527,48.3379 442.527,48.5045 444.5,49C 442.288,49.7891 440.288,49.6225 438.5,48.5 Z"/></g>
<g><path style="opacity:0.013" fill="#fefffe" d="M 390.5,50.5 C 391.919,49.5489 393.585,49.2155 395.5,49.5C 394.081,50.4511 392.415,50.7845 390.5,50.5 Z"/></g>
<g><path style="opacity:0.014" fill="#fefffe" d="M 445.5,50.5 C 446.601,49.4017 447.934,49.235 449.5,50C 448.207,50.49 446.873,50.6567 445.5,50.5 Z"/></g>
<g><path style="opacity:0.013" fill="#fefffe" d="M 386.5,51.5 C 387.568,50.5655 388.901,50.2322 390.5,50.5C 389.432,51.4345 388.099,51.7678 386.5,51.5 Z"/></g>
<g><path style="opacity:0.013" fill="#fefffe" d="M 454.5,51.5 C 453.127,51.6567 451.793,51.49 450.5,51C 452.066,50.235 453.399,50.4017 454.5,51.5 Z"/></g>
<g><path style="opacity:0.008" fill="#fefffe" d="M 157.5,51.5 C 158.833,52.1667 158.833,52.1667 157.5,51.5 Z"/></g>
<g><path style="opacity:0.012" fill="#fefffe" d="M 375.5,52.5 C 374.833,51.1667 374.833,51.1667 375.5,52.5 Z"/></g>
<g><path style="opacity:0.012" fill="#fefffe" d="M 382.5,52.5 C 383.568,51.5655 384.901,51.2322 386.5,51.5C 385.432,52.4345 384.099,52.7678 382.5,52.5 Z"/></g>
<g><path style="opacity:0.012" fill="#fefffe" d="M 454.5,51.5 C 455.791,51.2627 456.791,51.596 457.5,52.5C 456.209,52.7373 455.209,52.404 454.5,51.5 Z"/></g>
<g><path style="opacity:0.008" fill="#fefffe" d="M 375.5,52.5 C 376.167,52.5 376.5,52.8333 376.5,53.5C 376.167,53.1667 375.833,52.8333 375.5,52.5 Z"/></g>
<g><path style="opacity:0.012" fill="#fefffe" d="M 382.5,52.5 C 381.399,53.5983 380.066,53.765 378.5,53C 379.793,52.51 381.127,52.3433 382.5,52.5 Z"/></g>
<g><path style="opacity:0.012" fill="#fefffe" d="M 457.5,52.5 C 458.552,52.3505 459.552,52.5172 460.5,53C 459.251,53.7401 458.251,53.5735 457.5,52.5 Z"/></g>
<g><path style="opacity:0.02" fill="#fefffe" d="M 376.5,53.5 C 377.833,54.1667 377.833,54.1667 376.5,53.5 Z"/></g>
<g><path style="opacity:0.01" fill="#fefffe" d="M 464.5,54.5 C 463.448,54.6495 462.448,54.4828 461.5,54C 462.749,53.2599 463.749,53.4265 464.5,54.5 Z"/></g>
<g><path style="opacity:0.014" fill="#fefffe" d="M 464.5,54.5 C 465.492,54.3284 466.158,54.6618 466.5,55.5C 465.508,55.6716 464.842,55.3382 464.5,54.5 Z"/></g>
<g><path style="opacity:0.009" fill="#fefffe" d="M 466.5,56.5 C 466.5,56.1667 466.5,55.8333 466.5,55.5C 467.791,55.2627 468.791,55.596 469.5,56.5C 468.5,56.5 467.5,56.5 466.5,56.5 Z"/></g>
<g><path style="opacity:0.014" fill="#fefffe" d="M 469.5,56.5 C 470.239,56.369 470.906,56.5357 471.5,57C 470.563,57.6917 469.897,57.525 469.5,56.5 Z"/></g>
<g><path style="opacity:0.012" fill="#fefffe" d="M 154.5,59.5 C 154.369,58.7611 154.536,58.0944 155,57.5C 155.692,58.4368 155.525,59.1034 154.5,59.5 Z"/></g>
<g><path style="opacity:0.012" fill="#fefffe" d="M 474.5,58.5 C 473.761,58.631 473.094,58.4643 472.5,58C 473.437,57.3083 474.103,57.475 474.5,58.5 Z"/></g>
<g><path style="opacity:0.014" fill="#fefffe" d="M 474.5,58.5 C 475.239,58.369 475.906,58.5357 476.5,59C 475.563,59.6917 474.897,59.525 474.5,58.5 Z"/></g>
<g><path style="opacity:0.01" fill="#fefffe" d="M 154.5,59.5 C 154.649,60.552 154.483,61.552 154,62.5C 153.26,61.2506 153.427,60.2506 154.5,59.5 Z"/></g>
<g><path style="opacity:0.01" fill="#fefffe" d="M 482.5,63.5 C 483.167,62.1667 483.833,62.1667 484.5,63.5C 483.833,63.5 483.167,63.5 482.5,63.5 Z"/></g>
<g><path style="opacity:0.014" fill="#fefffe" d="M 152.5,66.5 C 152.351,65.448 152.517,64.448 153,63.5C 153.74,64.7494 153.573,65.7494 152.5,66.5 Z"/></g>
<g><path style="opacity:0.012" fill="#fefffe" d="M 484.5,63.5 C 485.833,64.1667 485.833,64.1667 484.5,63.5 Z"/></g>
<g><path style="opacity:0.016" fill="#fefffe" d="M 486.5,64.5 C 487.833,65.1667 487.833,65.1667 486.5,64.5 Z"/></g>
<g><path style="opacity:0.01" fill="#fefffe" d="M 152.5,66.5 C 152.795,68.7354 152.461,70.7354 151.5,72.5C 151.205,70.2646 151.539,68.2646 152.5,66.5 Z"/></g>
<g><path style="opacity:0.015" fill="#fefefe" d="M 151.5,72.5 C 151.5,73.5 151.5,74.5 151.5,75.5C 144.833,75.5 138.167,75.5 131.5,75.5C 138.261,75.0868 144.928,74.0868 151.5,72.5 Z"/></g>
<g><path style="opacity:0.012" fill="#fefffe" d="M 124.5,76.5 C 126.607,75.5318 128.941,75.1984 131.5,75.5C 129.393,76.4682 127.059,76.8016 124.5,76.5 Z"/></g>
<g><path style="opacity:0.013" fill="#fefffe" d="M 124.5,76.5 C 123.054,77.6129 121.387,77.7796 119.5,77C 121.134,76.5065 122.801,76.3398 124.5,76.5 Z"/></g>
<g><path style="opacity:0.625" fill="#474747" d="M 153.5,73.5 C 153.5,74.8333 153.5,76.1667 153.5,77.5C 146.833,77.5 140.167,77.5 133.5,77.5C 139.645,76.5098 145.978,76.1765 152.5,76.5C 152.263,75.209 152.596,74.209 153.5,73.5 Z"/></g>
<g><path style="opacity:0.012" fill="#fefffe" d="M 114.5,78.5 C 115.601,77.4017 116.934,77.235 118.5,78C 117.207,78.49 115.873,78.6567 114.5,78.5 Z"/></g>
<g><path style="opacity:0.014" fill="#fefffe" d="M 114.5,78.5 C 113.749,79.5735 112.749,79.7401 111.5,79C 112.448,78.5172 113.448,78.3505 114.5,78.5 Z"/></g>
<g><path style="opacity:0.016" fill="#fefffe" d="M 91.5,86.5 C 92.8333,87.1667 92.8333,87.1667 91.5,86.5 Z"/></g>
<g><path style="opacity:0.012" fill="#fefffe" d="M 514.5,89.5 C 513.833,88.1667 513.833,88.1667 514.5,89.5 Z"/></g>
<g><path style="opacity:0.008" fill="#fefffe" d="M 514.5,89.5 C 515.833,90.1667 515.833,90.1667 514.5,89.5 Z"/></g>
<g><path style="opacity:0.012" fill="#fefffe" d="M 81.5,92.5 C 82.8333,93.1667 82.8333,93.1667 81.5,92.5 Z"/></g>
<g><path style="opacity:0.008" fill="#fefffe" d="M 79.5,93.5 C 80.8333,94.1667 80.8333,94.1667 79.5,93.5 Z"/></g>
<g><path style="opacity:0.012" fill="#fefffe" d="M 524.5,94.5 C 522.393,95.4682 520.059,95.8016 517.5,95.5C 517.369,94.7611 517.536,94.0944 518,93.5C 520.041,94.4231 522.208,94.7564 524.5,94.5 Z"/></g>
<g><path style="opacity:0.015" fill="#fefffe" d="M 524.5,94.5 C 536.66,93.3401 548.993,93.1735 561.5,94C 549.171,94.4999 536.838,94.6665 524.5,94.5 Z"/></g>
<g><path style="opacity:0.013" fill="#fefffe" d="M 562.5,95.5 C 563.946,94.3871 565.613,94.2204 567.5,95C 565.866,95.4935 564.199,95.6602 562.5,95.5 Z"/></g>
<g><path style="opacity:0.013" fill="#fefffe" d="M 572.5,96.5 C 571.127,96.6567 569.793,96.49 568.5,96C 570.066,95.235 571.399,95.4017 572.5,96.5 Z"/></g>
<g><path style="opacity:0.011" fill="#fefffe" d="M 572.5,96.5 C 574.099,96.2322 575.432,96.5655 576.5,97.5C 574.901,97.7678 573.568,97.4345 572.5,96.5 Z"/></g>
<g><path style="opacity:0.013" fill="#fefffe" d="M 576.5,97.5 C 577.791,97.2627 578.791,97.596 579.5,98.5C 578.209,98.7373 577.209,98.404 576.5,97.5 Z"/></g>
<g><path style="opacity:0.012" fill="#fefffe" d="M 579.5,98.5 C 580.791,98.2627 581.791,98.596 582.5,99.5C 581.209,99.7373 580.209,99.404 579.5,98.5 Z"/></g>
<g><path style="opacity:0.01" fill="#fefffe" d="M 582.5,99.5 C 583.791,99.2627 584.791,99.596 585.5,100.5C 584.209,100.737 583.209,100.404 582.5,99.5 Z"/></g>
<g><path style="opacity:0.01" fill="#fefffe" d="M 585.5,100.5 C 586.239,100.369 586.906,100.536 587.5,101C 586.563,101.692 585.897,101.525 585.5,100.5 Z"/></g>
<g><path style="opacity:0.012" fill="#fefffe" d="M 590.5,102.5 C 589.761,102.631 589.094,102.464 588.5,102C 589.437,101.308 590.103,101.475 590.5,102.5 Z"/></g>
<g><path style="opacity:0.004" fill="#fefffe" d="M 68.5,102.5 C 69.8333,103.167 69.8333,103.167 68.5,102.5 Z"/></g>
<g><path style="opacity:0.014" fill="#fefffe" d="M 590.5,102.5 C 591.239,102.369 591.906,102.536 592.5,103C 591.563,103.692 590.897,103.525 590.5,102.5 Z"/></g>
<g><path style="opacity:0.004" fill="#fefffe" d="M 68.5,103.5 C 67.8333,104.167 67.8333,104.167 68.5,103.5 Z"/></g>
<g><path style="opacity:0.008" fill="#fefffe" d="M 62.5,109.5 C 63.8333,110.167 63.8333,110.167 62.5,109.5 Z"/></g>
<g><path style="opacity:0.004" fill="#fefffe" d="M 62.5,110.5 C 61.8333,111.167 61.8333,111.167 62.5,110.5 Z"/></g>
<g><path style="opacity:0.008" fill="#fefffe" d="M 57.5,116.5 C 58.8333,117.167 58.8333,117.167 57.5,116.5 Z"/></g>
<g><path style="opacity:0.012" fill="#fefffe" d="M 56.5,118.5 C 57.8333,119.167 57.8333,119.167 56.5,118.5 Z"/></g>
<g><path style="opacity:0.012" fill="#fefffe" d="M 56.5,119.5 C 56.6716,120.492 56.3382,121.158 55.5,121.5C 55.3284,120.508 55.6618,119.842 56.5,119.5 Z"/></g>
<g><path style="opacity:0.004" fill="#fefffe" d="M 617.5,120.5 C 618.167,119.167 618.833,119.167 619.5,120.5C 618.833,120.5 618.167,120.5 617.5,120.5 Z"/></g>
<g><path style="opacity:0.004" fill="#fefffe" d="M 619.5,120.5 C 620.167,120.5 620.5,120.833 620.5,121.5C 620.167,121.167 619.833,120.833 619.5,120.5 Z"/></g>
<g><path style="opacity:0.012" fill="#fefffe" d="M 55.5,121.5 C 55.6716,122.492 55.3382,123.158 54.5,123.5C 54.3284,122.508 54.6618,121.842 55.5,121.5 Z"/></g>
<g><path style="opacity:0.004" fill="#fefffe" d="M 620.5,121.5 C 621.167,121.5 621.5,121.833 621.5,122.5C 621.167,122.167 620.833,121.833 620.5,121.5 Z"/></g>
<g><path style="opacity:0.004" fill="#fefffe" d="M 621.5,122.5 C 622.167,122.5 622.5,122.833 622.5,123.5C 622.167,123.167 621.833,122.833 621.5,122.5 Z"/></g>
<g><path style="opacity:0.008" fill="#fefffe" d="M 54.5,123.5 C 54.5,124.5 54.5,125.5 54.5,126.5C 54.1667,126.5 53.8333,126.5 53.5,126.5C 53.2627,125.209 53.596,124.209 54.5,123.5 Z"/></g>
<g><path style="opacity:0.004" fill="#fefffe" d="M 622.5,123.5 C 623.167,123.5 623.5,123.833 623.5,124.5C 623.167,124.167 622.833,123.833 622.5,123.5 Z"/></g>
<g><path style="opacity:0.004" fill="#fefffe" d="M 623.5,124.5 C 624.167,124.5 624.5,124.833 624.5,125.5C 624.167,125.167 623.833,124.833 623.5,124.5 Z"/></g>
<g><path style="opacity:0.004" fill="#fefffe" d="M 624.5,125.5 C 625.833,126.167 625.833,126.167 624.5,125.5 Z"/></g>
<g><path style="opacity:0.014" fill="#fefffe" d="M 53.5,126.5 C 53.631,127.239 53.4643,127.906 53,128.5C 52.3083,127.563 52.475,126.897 53.5,126.5 Z"/></g>
<g><path style="opacity:0.013" fill="#fefffe" d="M 51.5,132.5 C 51.3505,131.448 51.5172,130.448 52,129.5C 52.7401,130.749 52.5735,131.749 51.5,132.5 Z"/></g>
<g><path style="opacity:0.008" fill="#fefffe" d="M 628.5,130.5 C 627.833,129.167 627.833,129.167 628.5,130.5 Z"/></g>
<g><path style="opacity:0.008" fill="#fefffe" d="M 628.5,130.5 C 629.167,130.5 629.5,130.833 629.5,131.5C 629.167,131.167 628.833,130.833 628.5,130.5 Z"/></g>
<g><path style="opacity:0.004" fill="#fefffe" d="M 629.5,131.5 C 630.833,132.167 630.833,132.167 629.5,131.5 Z"/></g>
<g><path style="opacity:0.012" fill="#fefffe" d="M 51.5,132.5 C 51.7678,134.099 51.4345,135.432 50.5,136.5C 50.2322,134.901 50.5655,133.568 51.5,132.5 Z"/></g>
<g><path style="opacity:0.012" fill="#fefffe" d="M 631.5,134.5 C 630.833,133.167 630.833,133.167 631.5,134.5 Z"/></g>
<g><path style="opacity:0.008" fill="#fefffe" d="M 631.5,134.5 C 632.833,135.167 632.833,135.167 631.5,134.5 Z"/></g>
<g><path style="opacity:0.016" fill="#fefffe" d="M 50.5,136.5 C 49.8333,137.167 49.8333,137.167 50.5,136.5 Z"/></g>
<g><path style="opacity:0.012" fill="#fefffe" d="M 633.5,137.5 C 632.833,136.167 632.833,136.167 633.5,137.5 Z"/></g>
<g><path style="opacity:0.006" fill="#fefffe" d="M 633.5,137.5 C 634.338,137.842 634.672,138.508 634.5,139.5C 634.167,139.5 633.833,139.5 633.5,139.5C 633.5,138.833 633.5,138.167 633.5,137.5 Z"/></g>
<g><path style="opacity:0.008" fill="#fefffe" d="M 634.5,139.5 C 635.833,140.167 635.833,140.167 634.5,139.5 Z"/></g>
<g><path style="opacity:0.01" fill="#fefffe" d="M 36.5,142.5 C 36.8966,141.475 37.5632,141.308 38.5,142C 37.9056,142.464 37.2389,142.631 36.5,142.5 Z"/></g>
<g><path style="opacity:0.008" fill="#fefffe" d="M 34.5,143.5 C 34.8417,142.662 35.5084,142.328 36.5,142.5C 36.1583,143.338 35.4916,143.672 34.5,143.5 Z"/></g>
<g><path style="opacity:0.012" fill="#fefffe" d="M 34.5,143.5 C 33.8333,144.167 33.8333,144.167 34.5,143.5 Z"/></g>
<g><path style="opacity:0.01" fill="#fefffe" d="M 637.5,145.5 C 637.167,145.5 636.833,145.5 636.5,145.5C 636.833,142.833 637.167,142.833 637.5,145.5 Z"/></g>
<g><path style="opacity:0.01" fill="#fefffe" d="M 637.5,145.5 C 638.338,145.842 638.672,146.508 638.5,147.5C 637.662,147.158 637.328,146.492 637.5,145.5 Z"/></g>
<g><path style="opacity:0.008" fill="#fefffe" d="M 26.5,147.5 C 27.8333,148.167 27.8333,148.167 26.5,147.5 Z"/></g>
<g><path style="opacity:0.009" fill="#fefffe" d="M 638.5,147.5 C 638.833,147.5 639.167,147.5 639.5,147.5C 639.5,148.5 639.5,149.5 639.5,150.5C 638.596,149.791 638.263,148.791 638.5,147.5 Z"/></g>
<g><path style="opacity:0.008" fill="#fefffe" d="M 8.5,162.5 C 9.83333,163.167 9.83333,163.167 8.5,162.5 Z"/></g>
<g><path style="opacity:0.004" fill="#fefffe" d="M 8.5,163.5 C 7.83333,164.167 7.83333,164.167 8.5,163.5 Z"/></g>
<g><path style="opacity:0.008" fill="#fefffe" d="M 7.5,166.5 C 6.83333,165.167 6.83333,165.167 7.5,166.5 Z"/></g>
<g><path style="opacity:0.008" fill="#fefffe" d="M 6.5,166.5 C 5.83333,167.167 5.83333,167.167 6.5,166.5 Z"/></g>
<g><path style="opacity:0.01" fill="#fefffe" d="M 0.5,175.5 C 1.52502,175.897 1.69169,176.563 1,177.5C 0.535656,176.906 0.368989,176.239 0.5,175.5 Z"/></g>
<g><path style="opacity:0.009" fill="#fefffe" d="M -0.5,178.5 C 0.403972,179.209 0.737305,180.209 0.5,181.5C 0.166667,181.5 -0.166667,181.5 -0.5,181.5C -0.5,180.5 -0.5,179.5 -0.5,178.5 Z"/></g>
<g><path style="opacity:0.01" fill="#fefffe" d="M 639.5,180.5 C 639.5,181.5 639.5,182.5 639.5,183.5C 639.167,183.5 638.833,183.5 638.5,183.5C 638.263,182.209 638.596,181.209 639.5,180.5 Z"/></g>
<g><path style="opacity:0.014" fill="#fefffe" d="M 638.5,183.5 C 638.672,184.492 638.338,185.158 637.5,185.5C 637.328,184.508 637.662,183.842 638.5,183.5 Z"/></g>
<g><path style="opacity:0.01" fill="#fefffe" d="M 636.5,185.5 C 636.833,185.5 637.167,185.5 637.5,185.5C 637.167,188.167 636.833,188.167 636.5,185.5 Z"/></g>
<g><path style="opacity:0.016" fill="#fefffe" d="M 635.5,188.5 C 636.833,189.167 636.833,189.167 635.5,188.5 Z"/></g>
<g><path style="opacity:0.016" fill="#fefffe" d="M 634.5,190.5 C 635.833,191.167 635.833,191.167 634.5,190.5 Z"/></g>
<g><path style="opacity:0.008" fill="#fefffe" d="M 633.5,192.5 C 634.833,193.167 634.833,193.167 633.5,192.5 Z"/></g>
<g><path style="opacity:0.004" fill="#fefffe" d="M 626.5,202.5 C 627.833,203.167 627.833,203.167 626.5,202.5 Z"/></g>
<g><path style="opacity:0.008" fill="#fefffe" d="M 626.5,203.5 C 625.833,204.167 625.833,204.167 626.5,203.5 Z"/></g>
<g><path style="opacity:0.012" fill="#fefffe" d="M 625.5,204.5 C 624.833,205.167 624.833,205.167 625.5,204.5 Z"/></g>
<g><path style="opacity:0.012" fill="#fefffe" d="M 623.5,205.5 C 623.833,205.5 624.167,205.5 624.5,205.5C 624.315,206.17 623.981,206.17 623.5,205.5 Z"/></g>
<g><path style="opacity:0.008" fill="#fefffe" d="M 622.5,206.5 C 622.833,206.5 623.167,206.5 623.5,206.5C 623.315,207.17 622.981,207.17 622.5,206.5 Z"/></g>
<g><path style="opacity:0.008" fill="#fefffe" d="M 621.5,207.5 C 621.833,207.5 622.167,207.5 622.5,207.5C 622.315,208.17 621.981,208.17 621.5,207.5 Z"/></g>
<g><path style="opacity:0.008" fill="#fefffe" d="M 620.5,208.5 C 620.833,208.5 621.167,208.5 621.5,208.5C 621.315,209.17 620.981,209.17 620.5,208.5 Z"/></g>
<g><path style="opacity:0.01" fill="#fefffe" d="M -0.5,209.5 C 0.403972,210.209 0.737305,211.209 0.5,212.5C 0.166667,212.5 -0.166667,212.5 -0.5,212.5C -0.5,211.5 -0.5,210.5 -0.5,209.5 Z"/></g>
<g><path style="opacity:0.01" fill="#fefffe" d="M 0.5,212.5 C 1.33825,212.842 1.67158,213.508 1.5,214.5C 0.661754,214.158 0.32842,213.492 0.5,212.5 Z"/></g>
<g><path style="opacity:0.012" fill="#fefffe" d="M 1.5,214.5 C 2.33825,214.842 2.67158,215.508 2.5,216.5C 1.66175,216.158 1.32842,215.492 1.5,214.5 Z"/></g>
<g><path style="opacity:0.01" fill="#fefffe" d="M 2.5,216.5 C 2.83333,216.5 3.16667,216.5 3.5,216.5C 3.5,217.167 3.5,217.833 3.5,218.5C 2.66175,218.158 2.32842,217.492 2.5,216.5 Z"/></g>
<g><path style="opacity:0.012" fill="#fefffe" d="M 3.5,218.5 C 4.83333,219.167 4.83333,219.167 3.5,218.5 Z"/></g>
<g><path style="opacity:0.008" fill="#fefffe" d="M 5.5,221.5 C 4.83333,220.167 4.83333,220.167 5.5,221.5 Z"/></g>
<g><path style="opacity:0.008" fill="#fefffe" d="M 605.5,220.5 C 606.833,221.167 606.833,221.167 605.5,220.5 Z"/></g>
<g><path style="opacity:0.008" fill="#fefffe" d="M 5.5,221.5 C 5.83333,221.5 6.16667,221.5 6.5,221.5C 6.31468,222.17 5.98135,222.17 5.5,221.5 Z"/></g>
<g><path style="opacity:0.012" fill="#fefffe" d="M 603.5,221.5 C 604.833,222.167 604.833,222.167 603.5,221.5 Z"/></g>
<g><path style="opacity:0.006" fill="#fefffe" d="M 601.5,223.5 C 601.5,223.167 601.5,222.833 601.5,222.5C 602.167,222.5 602.833,222.5 603.5,222.5C 603.158,223.338 602.492,223.672 601.5,223.5 Z"/></g>
<g><path style="opacity:0.008" fill="#fefffe" d="M 6.5,223.5 C 7.83333,224.167 7.83333,224.167 6.5,223.5 Z"/></g>
<g><path style="opacity:0.006" fill="#fefffe" d="M 599.5,224.5 C 599.5,224.167 599.5,223.833 599.5,223.5C 600.167,223.5 600.833,223.5 601.5,223.5C 601.158,224.338 600.492,224.672 599.5,224.5 Z"/></g>
<g><path style="opacity:0.016" fill="#fefffe" d="M 599.5,224.5 C 598.833,225.167 598.833,225.167 599.5,224.5 Z"/></g>
<g><path style="opacity:0.016" fill="#fefffe" d="M 596.5,225.5 C 597.833,226.167 597.833,226.167 596.5,225.5 Z"/></g>
<g><path style="opacity:0.016" fill="#fefffe" d="M 594.5,226.5 C 595.833,227.167 595.833,227.167 594.5,226.5 Z"/></g>
<g><path style="opacity:0.004" fill="#fefffe" d="M 11.5,227.5 C 10.8333,228.167 10.8333,228.167 11.5,227.5 Z"/></g>
<g><path style="opacity:0.014" fill="#fefffe" d="M 584.5,231.5 C 584.897,230.475 585.563,230.308 586.5,231C 585.906,231.464 585.239,231.631 584.5,231.5 Z"/></g>
<g><path style="opacity:0.014" fill="#fefffe" d="M 581.5,232.5 C 581.897,231.475 582.563,231.308 583.5,232C 582.906,232.464 582.239,232.631 581.5,232.5 Z"/></g>
<g><path style="opacity:0.012" fill="#fefffe" d="M 577.5,233.5 C 578.251,232.427 579.251,232.26 580.5,233C 579.552,233.483 578.552,233.649 577.5,233.5 Z"/></g>
<g><path style="opacity:0.012" fill="#fefffe" d="M 573.5,234.5 C 574.568,233.566 575.901,233.232 577.5,233.5C 576.432,234.434 575.099,234.768 573.5,234.5 Z"/></g>
<g><path style="opacity:0.014" fill="#fefffe" d="M 569.5,235.5 C 570.568,234.566 571.901,234.232 573.5,234.5C 572.432,235.434 571.099,235.768 569.5,235.5 Z"/></g>
<g><path style="opacity:0.012" fill="#fefffe" d="M 563.5,236.5 C 565.265,235.539 567.265,235.205 569.5,235.5C 567.735,236.461 565.735,236.795 563.5,236.5 Z"/></g>
<g><path style="opacity:0.009" fill="#fefffe" d="M 529.5,237.5 C 528.5,237.5 527.5,237.5 526.5,237.5C 526.768,239.099 526.434,240.432 525.5,241.5C 525.5,239.833 525.5,238.167 525.5,236.5C 527.099,236.232 528.432,236.566 529.5,237.5 Z"/></g>
<g><path style="opacity:0.011" fill="#fefffe" d="M 554.5,237.5 C 557.287,236.523 560.287,236.19 563.5,236.5C 560.713,237.477 557.713,237.81 554.5,237.5 Z"/></g>
<g><path style="opacity:0.012" fill="#fefffe" d="M 22.5,237.5 C 22.5,237.833 22.5,238.167 22.5,238.5C 21.8299,238.019 21.8299,237.685 22.5,237.5 Z"/></g>
<g><path style="opacity:0.009" fill="#fefffe" d="M 529.5,237.5 C 537.833,237.5 546.167,237.5 554.5,237.5C 546.167,238.833 537.833,238.833 529.5,237.5 Z"/></g>
<g><path style="opacity:0.008" fill="#fefffe" d="M 22.5,238.5 C 23.8333,239.167 23.8333,239.167 22.5,238.5 Z"/></g>
<g><path style="opacity:0.012" fill="#fefffe" d="M 525.5,241.5 C 525.768,243.099 525.434,244.432 524.5,245.5C 524.232,243.901 524.566,242.568 525.5,241.5 Z"/></g>
<g><path style="opacity:0.012" fill="#fefffe" d="M 524.5,245.5 C 524.768,247.099 524.434,248.432 523.5,249.5C 523.232,247.901 523.566,246.568 524.5,245.5 Z"/></g>
<g><path style="opacity:0.01" fill="#fefffe" d="M 37.5,246.5 C 37.5,246.833 37.5,247.167 37.5,247.5C 34.8333,247.167 34.8333,246.833 37.5,246.5 Z"/></g>
<g><path style="opacity:0.01" fill="#fefffe" d="M 37.5,247.5 C 38.4916,247.328 39.1583,247.662 39.5,248.5C 38.5084,248.672 37.8417,248.338 37.5,247.5 Z"/></g>
<g><path style="opacity:0.012" fill="#fefffe" d="M 39.5,248.5 C 40.2389,248.369 40.9056,248.536 41.5,249C 40.5632,249.692 39.8966,249.525 39.5,248.5 Z"/></g>
<g><path style="opacity:0.014" fill="#fefffe" d="M 44.5,250.5 C 43.7611,250.631 43.0944,250.464 42.5,250C 43.4368,249.308 44.1034,249.475 44.5,250.5 Z"/></g>
<g><path style="opacity:0.013" fill="#fefffe" d="M 523.5,249.5 C 523.737,250.791 523.404,251.791 522.5,252.5C 522.263,251.209 522.596,250.209 523.5,249.5 Z"/></g>
<g><path style="opacity:0.009" fill="#fefffe" d="M 44.5,250.5 C 45.5,250.5 46.5,250.5 47.5,250.5C 47.5,250.833 47.5,251.167 47.5,251.5C 46.209,251.737 45.209,251.404 44.5,250.5 Z"/></g>
<g><path style="opacity:0.013" fill="#fefffe" d="M 47.5,251.5 C 48.791,251.263 49.791,251.596 50.5,252.5C 49.209,252.737 48.209,252.404 47.5,251.5 Z"/></g>
<g><path style="opacity:0.013" fill="#fefffe" d="M 50.5,252.5 C 51.552,252.351 52.552,252.517 53.5,253C 52.2506,253.74 51.2506,253.573 50.5,252.5 Z"/></g>
<g><path style="opacity:0.014" fill="#fefffe" d="M 522.5,252.5 C 522.631,253.239 522.464,253.906 522,254.5C 521.308,253.563 521.475,252.897 522.5,252.5 Z"/></g>
<g><path style="opacity:0.013" fill="#fefffe" d="M 58.5,254.5 C 57.1266,254.657 55.7932,254.49 54.5,254C 56.0657,253.235 57.3991,253.402 58.5,254.5 Z"/></g>
<g><path style="opacity:0.012" fill="#fefffe" d="M 58.5,254.5 C 60.7354,254.205 62.7354,254.539 64.5,255.5C 62.2646,255.795 60.2646,255.461 58.5,254.5 Z"/></g>
<g><path style="opacity:0.02" fill="#fefffe" d="M 100.5,254.5 C 101.833,255.167 101.833,255.167 100.5,254.5 Z"/></g>
<g><path style="opacity:0.012" fill="#fefffe" d="M 64.5,255.5 C 68.7016,255.183 72.7016,255.517 76.5,256.5C 72.2984,256.817 68.2984,256.483 64.5,255.5 Z"/></g>
<g><path style="opacity:0.011" fill="#fefffe" d="M 100.5,255.5 C 93.6791,256.655 86.6791,256.821 79.5,256C 86.4921,255.5 93.4921,255.334 100.5,255.5 Z"/></g>
<g><path style="opacity:0.012" fill="#fefffe" d="M 520.5,257.5 C 520.369,256.761 520.536,256.094 521,255.5C 521.692,256.437 521.525,257.103 520.5,257.5 Z"/></g>
<g><path style="opacity:0.004" fill="#fefffe" d="M 76.5,256.5 C 77.8333,257.167 77.8333,257.167 76.5,256.5 Z"/></g>
<g><path style="opacity:0.01" fill="#fefffe" d="M 102.5,258.5 C 101.475,258.103 101.308,257.437 102,256.5C 102.464,257.094 102.631,257.761 102.5,258.5 Z"/></g>
<g><path style="opacity:0.01" fill="#fefffe" d="M 519.5,257.5 C 519.833,257.5 520.167,257.5 520.5,257.5C 520.672,258.492 520.338,259.158 519.5,259.5C 519.5,258.833 519.5,258.167 519.5,257.5 Z"/></g>
<g><path style="opacity:0.014" fill="#fefffe" d="M 102.5,258.5 C 103.525,258.897 103.692,259.563 103,260.5C 102.536,259.906 102.369,259.239 102.5,258.5 Z"/></g>
<g><path style="opacity:0.01" fill="#fefffe" d="M 518.5,259.5 C 518.833,259.5 519.167,259.5 519.5,259.5C 519.167,262.167 518.833,262.167 518.5,259.5 Z"/></g>
<g><path style="opacity:0.016" fill="#fefffe" d="M 517.5,262.5 C 518.833,263.167 518.833,263.167 517.5,262.5 Z"/></g>
<g><path style="opacity:0.008" fill="#fefffe" d="M 516.5,264.5 C 517.833,265.167 517.833,265.167 516.5,264.5 Z"/></g>
<g><path style="opacity:0.008" fill="#fefffe" d="M 515.5,266.5 C 516.833,267.167 516.833,267.167 515.5,266.5 Z"/></g>
<g><path style="opacity:0.006" fill="#fefffe" d="M 514.5,267.5 C 514.833,267.5 515.167,267.5 515.5,267.5C 515.672,268.492 515.338,269.158 514.5,269.5C 514.5,268.833 514.5,268.167 514.5,267.5 Z"/></g>
<g><path style="opacity:0.012" fill="#fefffe" d="M 514.5,269.5 C 513.833,270.167 513.833,270.167 514.5,269.5 Z"/></g>
<g><path style="opacity:0.01" fill="#fefffe" d="M 109.5,271.5 C 109.5,272.167 109.5,272.833 109.5,273.5C 108.167,272.833 108.167,272.167 109.5,271.5 Z"/></g>
<g><path style="opacity:0.004" fill="#fefffe" d="M 512.5,271.5 C 513.833,272.167 513.833,272.167 512.5,271.5 Z"/></g>
<g><path style="opacity:0.012" fill="#fefffe" d="M 511.5,272.5 C 511.833,272.5 512.167,272.5 512.5,272.5C 512.315,273.17 511.981,273.17 511.5,272.5 Z"/></g>
<g><path style="opacity:0.012" fill="#fefffe" d="M 109.5,273.5 C 110.833,274.167 110.833,274.167 109.5,273.5 Z"/></g>
<g><path style="opacity:0.004" fill="#fefffe" d="M 510.5,274.5 C 511.833,275.167 511.833,275.167 510.5,274.5 Z"/></g>
<g><path style="opacity:0.008" fill="#fefffe" d="M 111.5,276.5 C 110.833,275.167 110.833,275.167 111.5,276.5 Z"/></g>
<g><path style="opacity:0.012" fill="#fefffe" d="M 509.5,275.5 C 509.833,275.5 510.167,275.5 510.5,275.5C 510.315,276.17 509.981,276.17 509.5,275.5 Z"/></g>
<g><path style="opacity:0.008" fill="#fefffe" d="M 111.5,276.5 C 111.833,276.5 112.167,276.5 112.5,276.5C 112.315,277.17 111.981,277.17 111.5,276.5 Z"/></g>
<g><path style="opacity:0.008" fill="#fefffe" d="M 508.5,276.5 C 508.833,276.5 509.167,276.5 509.5,276.5C 509.315,277.17 508.981,277.17 508.5,276.5 Z"/></g>
<g><path style="opacity:0.008" fill="#fefffe" d="M 112.5,278.5 C 113.833,279.167 113.833,279.167 112.5,278.5 Z"/></g>
<g><path style="opacity:0.008" fill="#fefffe" d="M 507.5,278.5 C 508.833,279.167 508.833,279.167 507.5,278.5 Z"/></g>
<g><path style="opacity:0.012" fill="#fefffe" d="M 506.5,279.5 C 506.833,279.5 507.167,279.5 507.5,279.5C 507.315,280.17 506.981,280.17 506.5,279.5 Z"/></g>
<g><path style="opacity:0.004" fill="#fefffe" d="M 115.5,280.5 C 114.833,281.167 114.833,281.167 115.5,280.5 Z"/></g>
<g><path style="opacity:0.012" fill="#fefffe" d="M 505.5,280.5 C 505.833,280.5 506.167,280.5 506.5,280.5C 506.315,281.17 505.981,281.17 505.5,280.5 Z"/></g>
<g><path style="opacity:0.004" fill="#fefffe" d="M 115.5,282.5 C 116.833,283.167 116.833,283.167 115.5,282.5 Z"/></g>
<g><path style="opacity:0.004" fill="#fefffe" d="M 121.5,287.5 C 120.833,288.167 120.833,288.167 121.5,287.5 Z"/></g>
<g><path style="opacity:0.008" fill="#fefffe" d="M 499.5,287.5 C 500.833,288.167 500.833,288.167 499.5,287.5 Z"/></g>
<g><path style="opacity:0.008" fill="#fefffe" d="M 498.5,288.5 C 498.833,288.5 499.167,288.5 499.5,288.5C 499.315,289.17 498.981,289.17 498.5,288.5 Z"/></g>
<g><path style="opacity:0.012" fill="#fefffe" d="M 497.5,289.5 C 497.833,289.5 498.167,289.5 498.5,289.5C 498.315,290.17 497.981,290.17 497.5,289.5 Z"/></g>
<g><path style="opacity:0.012" fill="#fefffe" d="M 496.5,290.5 C 496.833,290.5 497.167,290.5 497.5,290.5C 497.315,291.17 496.981,291.17 496.5,290.5 Z"/></g>
<g><path style="opacity:0.004" fill="#fefffe" d="M 123.5,291.5 C 124.833,292.167 124.833,292.167 123.5,291.5 Z"/></g>
<g><path style="opacity:0.008" fill="#fefffe" d="M 495.5,291.5 C 495.833,291.5 496.167,291.5 496.5,291.5C 496.315,292.17 495.981,292.17 495.5,291.5 Z"/></g>
<g><path style="opacity:0.008" fill="#fefffe" d="M 488.5,297.5 C 489.833,298.167 489.833,298.167 488.5,297.5 Z"/></g>
<g><path style="opacity:0.012" fill="#fefffe" d="M 138.5,302.5 C 138.5,302.833 138.5,303.167 138.5,303.5C 137.83,303.019 137.83,302.685 138.5,302.5 Z"/></g>
<g><path style="opacity:0.004" fill="#fefffe" d="M 129.5,303.5 C 130.833,304.167 130.833,304.167 129.5,303.5 Z"/></g>
<g><path style="opacity:0.008" fill="#fefffe" d="M 138.5,303.5 C 139.833,304.167 139.833,304.167 138.5,303.5 Z"/></g>
<g><path style="opacity:0.012" fill="#fefffe" d="M 479.5,304.5 C 480.833,305.167 480.833,305.167 479.5,304.5 Z"/></g>
<g><path style="opacity:0.008" fill="#fefffe" d="M 479.5,305.5 C 478.833,306.167 478.833,306.167 479.5,305.5 Z"/></g>
<g><path style="opacity:0.012" fill="#fefffe" d="M 476.5,306.5 C 477.833,307.167 477.833,307.167 476.5,306.5 Z"/></g>
<g><path style="opacity:0.01" fill="#fefffe" d="M 150.5,309.5 C 150.5,309.833 150.5,310.167 150.5,310.5C 147.833,310.167 147.833,309.833 150.5,309.5 Z"/></g>
<g><path style="opacity:0.016" fill="#fefffe" d="M 150.5,310.5 C 151.833,311.167 151.833,311.167 150.5,310.5 Z"/></g>
<g><path style="opacity:0.016" fill="#fefffe" d="M 152.5,311.5 C 153.833,312.167 153.833,312.167 152.5,311.5 Z"/></g>
<g><path style="opacity:0.016" fill="#fefffe" d="M 154.5,312.5 C 155.833,313.167 155.833,313.167 154.5,312.5 Z"/></g>
<g><path style="opacity:0.01" fill="#fefffe" d="M 158.5,313.5 C 158.5,313.833 158.5,314.167 158.5,314.5C 155.833,314.167 155.833,313.833 158.5,313.5 Z"/></g>
<g><path style="opacity:0.008" fill="#fefffe" d="M 289.5,313.5 C 290.492,313.328 291.158,313.662 291.5,314.5C 290.508,314.672 289.842,314.338 289.5,313.5 Z"/></g>
<g><path style="opacity:0.012" fill="#fefffe" d="M 158.5,314.5 C 159.492,314.328 160.158,314.662 160.5,315.5C 159.508,315.672 158.842,315.338 158.5,314.5 Z"/></g>
<g><path style="opacity:0.008" fill="#fefffe" d="M 291.5,314.5 C 292.492,314.328 293.158,314.662 293.5,315.5C 292.508,315.672 291.842,315.338 291.5,314.5 Z"/></g>
<g><path style="opacity:0.008" fill="#fefffe" d="M 462.5,315.5 C 462.5,315.167 462.5,314.833 462.5,314.5C 465.167,314.833 465.167,315.167 462.5,315.5 Z"/></g>
<g><path style="opacity:0.012" fill="#fefffe" d="M 160.5,315.5 C 161.239,315.369 161.906,315.536 162.5,316C 161.563,316.692 160.897,316.525 160.5,315.5 Z"/></g>
<g><path style="opacity:0.012" fill="#fefffe" d="M 293.5,315.5 C 294.492,315.328 295.158,315.662 295.5,316.5C 294.508,316.672 293.842,316.338 293.5,315.5 Z"/></g>
<g><path style="opacity:0.012" fill="#fefffe" d="M 460.5,316.5 C 460.5,316.167 460.5,315.833 460.5,315.5C 461.167,315.5 461.833,315.5 462.5,315.5C 462.158,316.338 461.492,316.672 460.5,316.5 Z"/></g>
<g><path style="opacity:0.014" fill="#fefffe" d="M 163.5,317.5 C 163.897,316.475 164.563,316.308 165.5,317C 164.906,317.464 164.239,317.631 163.5,317.5 Z"/></g>
<g><path style="opacity:0.012" fill="#fefffe" d="M 295.5,316.5 C 296.239,316.369 296.906,316.536 297.5,317C 296.563,317.692 295.897,317.525 295.5,316.5 Z"/></g>
<g><path style="opacity:0.012" fill="#fefffe" d="M 458.5,317.5 C 458.5,317.167 458.5,316.833 458.5,316.5C 459.167,316.5 459.833,316.5 460.5,316.5C 460.158,317.338 459.492,317.672 458.5,317.5 Z"/></g>
<g><path style="opacity:0.008" fill="#fefffe" d="M 145.5,317.5 C 146.833,318.167 146.833,318.167 145.5,317.5 Z"/></g>
<g><path style="opacity:0.016" fill="#fefffe" d="M 298.5,317.5 C 299.833,318.167 299.833,318.167 298.5,317.5 Z"/></g>
<g><path style="opacity:0.012" fill="#fefffe" d="M 456.5,318.5 C 456.842,317.662 457.508,317.328 458.5,317.5C 458.158,318.338 457.492,318.672 456.5,318.5 Z"/></g>
<g><path style="opacity:0.004" fill="#fefffe" d="M 74.5,318.5 C 75.8333,319.167 75.8333,319.167 74.5,318.5 Z"/></g>
<g><path style="opacity:0.01" fill="#fefffe" d="M 171.5,318.5 C 171.5,318.833 171.5,319.167 171.5,319.5C 167.5,319.167 167.5,318.833 171.5,318.5 Z"/></g>
<g><path style="opacity:0.012" fill="#fefffe" d="M 456.5,318.5 C 456.103,319.525 455.437,319.692 454.5,319C 455.094,318.536 455.761,318.369 456.5,318.5 Z"/></g>
<g><path style="opacity:0.006" fill="#fefffe" d="M 147.5,321.5 C 146.475,321.103 146.308,320.437 147,319.5C 147.464,320.094 147.631,320.761 147.5,321.5 Z"/></g>
<g><path style="opacity:0.012" fill="#fefffe" d="M 171.5,319.5 C 172.791,319.263 173.791,319.596 174.5,320.5C 173.209,320.737 172.209,320.404 171.5,319.5 Z"/></g>
<g><path style="opacity:0.012" fill="#fefffe" d="M 73.5,320.5 C 74.525,320.897 74.6917,321.563 74,322.5C 73.5357,321.906 73.369,321.239 73.5,320.5 Z"/></g>
<g><path style="opacity:0.012" fill="#fefffe" d="M 174.5,320.5 C 175.791,320.263 176.791,320.596 177.5,321.5C 176.209,321.737 175.209,321.404 174.5,320.5 Z"/></g>
<g><path style="opacity:0.014" fill="#fefffe" d="M 147.5,321.5 C 148.525,321.897 148.692,322.563 148,323.5C 147.536,322.906 147.369,322.239 147.5,321.5 Z"/></g>
<g><path style="opacity:0.01" fill="#fefffe" d="M 177.5,321.5 C 179.099,321.232 180.432,321.566 181.5,322.5C 179.901,322.768 178.568,322.434 177.5,321.5 Z"/></g>
<g><path style="opacity:0.013" fill="#fefffe" d="M 181.5,322.5 C 183.099,322.232 184.432,322.566 185.5,323.5C 183.901,323.768 182.568,323.434 181.5,322.5 Z"/></g>
<g><path style="opacity:0.012" fill="#fefffe" d="M 254.5,323.5 C 255.568,322.566 256.901,322.232 258.5,322.5C 257.432,323.434 256.099,323.768 254.5,323.5 Z"/></g>
<g><path style="opacity:0.014" fill="#fefffe" d="M 309.5,323.5 C 309.897,322.475 310.563,322.308 311.5,323C 310.906,323.464 310.239,323.631 309.5,323.5 Z"/></g>
<g><path style="opacity:0.014" fill="#fefffe" d="M 444.5,323.5 C 444.897,322.475 445.563,322.308 446.5,323C 445.906,323.464 445.239,323.631 444.5,323.5 Z"/></g>
<g><path style="opacity:0.012" fill="#fefffe" d="M 73.5,335.5 C 72.3547,331.689 72.1881,327.689 73,323.5C 73.4988,327.486 73.6655,331.486 73.5,335.5 Z"/></g>
<g><path style="opacity:0.012" fill="#fefffe" d="M 185.5,323.5 C 187.415,323.216 189.081,323.549 190.5,324.5C 188.585,324.784 186.919,324.451 185.5,323.5 Z"/></g>
<g><path style="opacity:0.012" fill="#fefffe" d="M 250.5,324.5 C 251.568,323.566 252.901,323.232 254.5,323.5C 253.432,324.434 252.099,324.768 250.5,324.5 Z"/></g>
<g><path style="opacity:0.014" fill="#fefffe" d="M 314.5,324.5 C 313.761,324.631 313.094,324.464 312.5,324C 313.437,323.308 314.103,323.475 314.5,324.5 Z"/></g>
<g><path style="opacity:0.014" fill="#fefffe" d="M 441.5,324.5 C 441.897,323.475 442.563,323.308 443.5,324C 442.906,324.464 442.239,324.631 441.5,324.5 Z"/></g>
<g><path style="opacity:0.011" fill="#fefffe" d="M 190.5,324.5 C 192.735,324.205 194.735,324.539 196.5,325.5C 194.265,325.795 192.265,325.461 190.5,324.5 Z"/></g>
<g><path style="opacity:0.012" fill="#fefffe" d="M 245.5,325.5 C 246.919,324.549 248.585,324.216 250.5,324.5C 249.081,325.451 247.415,325.784 245.5,325.5 Z"/></g>
<g><path style="opacity:0.01" fill="#fefffe" d="M 314.5,324.5 C 315.791,324.263 316.791,324.596 317.5,325.5C 316.209,325.737 315.209,325.404 314.5,324.5 Z"/></g>
<g><path style="opacity:0.013" fill="#fefffe" d="M 438.5,325.5 C 439.209,324.596 440.209,324.263 441.5,324.5C 440.791,325.404 439.791,325.737 438.5,325.5 Z"/></g>
<g><path style="opacity:0.014" fill="#fefffe" d="M 196.5,325.5 C 198.857,325.337 201.19,325.503 203.5,326C 200.961,326.796 198.628,326.629 196.5,325.5 Z"/></g>
<g><path style="opacity:0.012" fill="#fefffe" d="M 237.5,326.5 C 239.948,325.527 242.615,325.194 245.5,325.5C 243.052,326.473 240.385,326.806 237.5,326.5 Z"/></g>
<g><path style="opacity:0.013" fill="#fefffe" d="M 317.5,325.5 C 318.791,325.263 319.791,325.596 320.5,326.5C 319.209,326.737 318.209,326.404 317.5,325.5 Z"/></g>
<g><path style="opacity:0.013" fill="#fefffe" d="M 435.5,326.5 C 436.209,325.596 437.209,325.263 438.5,325.5C 437.791,326.404 436.791,326.737 435.5,326.5 Z"/></g>
<g><path style="opacity:0.014" fill="#fefffe" d="M 237.5,326.5 C 226.674,327.659 215.674,327.826 204.5,327C 215.495,326.5 226.495,326.333 237.5,326.5 Z"/></g>
<g><path style="opacity:0.01" fill="#fefffe" d="M 320.5,326.5 C 322.099,326.232 323.432,326.566 324.5,327.5C 322.901,327.768 321.568,327.434 320.5,326.5 Z"/></g>
<g><path style="opacity:0.01" fill="#fefffe" d="M 431.5,327.5 C 432.568,326.566 433.901,326.232 435.5,326.5C 434.432,327.434 433.099,327.768 431.5,327.5 Z"/></g>
<g><path style="opacity:0.013" fill="#fefffe" d="M 324.5,327.5 C 325.791,327.263 326.791,327.596 327.5,328.5C 326.209,328.737 325.209,328.404 324.5,327.5 Z"/></g>
<g><path style="opacity:0.013" fill="#fefffe" d="M 431.5,327.5 C 430.749,328.573 429.749,328.74 428.5,328C 429.448,327.517 430.448,327.351 431.5,327.5 Z"/></g>
<g><path style="opacity:0.011" fill="#fefffe" d="M 327.5,328.5 C 329.415,328.216 331.081,328.549 332.5,329.5C 330.585,329.784 328.919,329.451 327.5,328.5 Z"/></g>
<g><path style="opacity:0.013" fill="#fefffe" d="M 424.5,329.5 C 425.251,328.427 426.251,328.26 427.5,329C 426.552,329.483 425.552,329.649 424.5,329.5 Z"/></g>
<g><path style="opacity:0.014" fill="#fefffe" d="M 332.5,329.5 C 334.099,329.232 335.432,329.566 336.5,330.5C 334.901,330.768 333.568,330.434 332.5,329.5 Z"/></g>
<g><path style="opacity:0.013" fill="#fefffe" d="M 419.5,330.5 C 420.601,329.402 421.934,329.235 423.5,330C 422.207,330.49 420.873,330.657 419.5,330.5 Z"/></g>
<g><path style="opacity:0.013" fill="#fefffe" d="M 336.5,330.5 C 338.415,330.216 340.081,330.549 341.5,331.5C 339.585,331.784 337.919,331.451 336.5,330.5 Z"/></g>
<g><path style="opacity:0.013" fill="#fefffe" d="M 414.5,331.5 C 415.919,330.549 417.585,330.216 419.5,330.5C 418.081,331.451 416.415,331.784 414.5,331.5 Z"/></g>
<g><path style="opacity:0.012" fill="#fefffe" d="M 341.5,331.5 C 343.735,331.205 345.735,331.539 347.5,332.5C 345.265,332.795 343.265,332.461 341.5,331.5 Z"/></g>
<g><path style="opacity:0.013" fill="#fefffe" d="M 408.5,332.5 C 410.265,331.539 412.265,331.205 414.5,331.5C 412.735,332.461 410.735,332.795 408.5,332.5 Z"/></g>
<g><path style="opacity:0.013" fill="#fefffe" d="M 347.5,332.5 C 349.857,332.337 352.19,332.503 354.5,333C 351.961,333.796 349.628,333.629 347.5,332.5 Z"/></g>
<g><path style="opacity:0.012" fill="#fefffe" d="M 400.5,333.5 C 402.948,332.527 405.615,332.194 408.5,332.5C 406.052,333.473 403.385,333.806 400.5,333.5 Z"/></g>
<g><path style="opacity:0.013" fill="#fefffe" d="M 369.5,334.5 C 364.821,334.666 360.155,334.499 355.5,334C 360.352,333.185 365.019,333.352 369.5,334.5 Z"/></g>
<g><path style="opacity:0.013" fill="#fefffe" d="M 387.5,334.5 C 391.634,333.515 395.968,333.182 400.5,333.5C 396.366,334.485 392.032,334.818 387.5,334.5 Z"/></g>
<g><path style="opacity:0.004" fill="#fefffe" d="M 369.5,334.5 C 375.5,334.5 381.5,334.5 387.5,334.5C 381.5,335.833 375.5,335.833 369.5,334.5 Z"/></g>
<g><path style="opacity:0.014" fill="#fefffe" d="M 73.5,335.5 C 74.525,335.897 74.6917,336.563 74,337.5C 73.5357,336.906 73.369,336.239 73.5,335.5 Z"/></g>
<g><path style="opacity:0.004" fill="#fefffe" d="M 45.5,344.5 C 46.8333,345.167 46.8333,345.167 45.5,344.5 Z"/></g>
<g><path style="opacity:0.014" fill="#fefffe" d="M 45.5,345.5 C 45.1034,346.525 44.4368,346.692 43.5,346C 44.0944,345.536 44.7611,345.369 45.5,345.5 Z"/></g>
<g><path style="opacity:0.004" fill="#fefffe" d="M 14.5,370.5 C 15.8333,371.167 15.8333,371.167 14.5,370.5 Z"/></g>
<g><path style="opacity:0.01" fill="#fefffe" d="M 11.5,372.5 C 11.8966,371.475 12.5632,371.308 13.5,372C 12.9056,372.464 12.2389,372.631 11.5,372.5 Z"/></g>
<g><path style="opacity:0.006" fill="#fefffe" d="M 69.5,376.5 C 69.8966,375.475 70.5632,375.308 71.5,376C 70.9056,376.464 70.2389,376.631 69.5,376.5 Z"/></g>
<g><path style="opacity:0.016" fill="#fefffe" d="M 69.5,376.5 C 68.8333,377.167 68.8333,377.167 69.5,376.5 Z"/></g>
<g><path style="opacity:0.016" fill="#fefffe" d="M 66.5,377.5 C 67.8333,378.167 67.8333,378.167 66.5,377.5 Z"/></g>
</svg>
