<?xml version="1.0" encoding="UTF-8"?>
<!DOCTYPE svg PUBLIC "-//W3C//DTD SVG 1.1//EN" "http://www.w3.org/Graphics/SVG/1.1/DTD/svg11.dtd">
<svg xmlns="http://www.w3.org/2000/svg" version="1.1" width="289px" height="289px" style="shape-rendering:geometricPrecision; text-rendering:geometricPrecision; image-rendering:optimizeQuality; fill-rule:evenodd; clip-rule:evenodd" xmlns:xlink="http://www.w3.org/1999/xlink">
<g><path style="opacity:1" fill="#fefefe" d="M -0.5,-0.5 C 95.8333,-0.5 192.167,-0.5 288.5,-0.5C 288.5,95.8333 288.5,192.167 288.5,288.5C 192.167,288.5 95.8333,288.5 -0.5,288.5C -0.5,192.167 -0.5,95.8333 -0.5,-0.5 Z"/></g>
<g><path style="opacity:1" fill="#0e0e0e" d="M 203.5,17.5 C 206.68,17.1762 207.847,18.5096 207,21.5C 201.002,33.1286 194.668,44.462 188,55.5C 186.764,54.6008 185.93,53.4341 185.5,52C 186.472,49.8887 187.305,47.7221 188,45.5C 192.716,35.7854 197.883,26.4521 203.5,17.5 Z"/></g>
<g><path style="opacity:1" fill="#0b0b0b" d="M 124.5,20.5 C 125.822,20.33 126.989,20.6634 128,21.5C 131.232,28.4006 134.899,35.0673 139,41.5C 139.824,44.7174 138.657,46.2174 135.5,46C 131.033,39.571 127.2,32.7377 124,25.5C 123.36,23.735 123.527,22.0683 124.5,20.5 Z"/></g>
<g><path style="opacity:1" fill="#131313" d="M 210.5,242.5 C 208.5,242.5 206.5,242.5 204.5,242.5C 204.5,242.167 204.5,241.833 204.5,241.5C 221.429,238.741 232.263,229.074 237,212.5C 237.761,206.54 236.761,200.873 234,195.5C 231.695,191.696 229.195,188.03 226.5,184.5C 232.37,174.79 232.87,164.79 228,154.5C 218.454,140.316 204.954,133.982 187.5,135.5C 185.29,125.791 179.623,118.957 170.5,115C 155.504,108.513 140.837,109.179 126.5,117C 123.75,119.79 120.584,121.957 117,123.5C 112.575,122.102 108.075,121.102 103.5,120.5C 101.527,119.837 99.3608,119.504 97,119.5C 93.5226,119.328 90.356,119.994 87.5,121.5C 73.2521,124.38 63.7521,132.714 59,146.5C 58.5017,149.817 58.335,153.15 58.5,156.5C 51.9854,157.171 46.1521,159.504 41,163.5C 38.6758,166.823 36.0092,169.823 33,172.5C 24.124,189.796 27.624,203.963 43.5,215C 48.1099,217.474 52.7766,219.641 57.5,221.5C 57.6101,236.393 63.9435,247.727 76.5,255.5C 76.5,256.167 76.1667,256.5 75.5,256.5C 62.5027,249.532 55.836,238.532 55.5,223.5C 33.6885,216.848 24.1885,202.181 27,179.5C 29.9101,171.919 34.4101,165.419 40.5,160C 45.5754,157.922 50.5754,155.756 55.5,153.5C 57.8111,136.414 67.1444,124.914 83.5,119C 95.0895,115.024 106.256,115.858 117,121.5C 119.345,118.823 122.012,116.49 125,114.5C 126.361,97.6134 133.194,83.4468 145.5,72C 149.796,70.185 153.796,67.8517 157.5,65C 165.817,63.1641 174.151,63.1641 182.5,65C 190.675,68.6162 198.675,72.6162 206.5,77C 222.028,91.8652 227.528,110.032 223,131.5C 222.088,134.586 220.921,137.586 219.5,140.5C 233.178,152.546 236.845,167.213 230.5,184.5C 233.509,189.185 236.009,194.185 238,199.5C 241.401,222.058 232.234,236.392 210.5,242.5 Z"/></g>
<g><path style="opacity:1" fill="#0e0e0e" d="M 249.5,68.5 C 254.587,68.2845 255.587,70.1178 252.5,74C 245.064,78.2808 238.064,83.1142 231.5,88.5C 229.382,89.9459 227.049,90.6126 224.5,90.5C 224.253,87.495 225.253,84.995 227.5,83C 235.079,78.3881 242.413,73.5547 249.5,68.5 Z"/></g>
<g><path style="opacity:1" fill="#fbfbfb" d="M 162.5,70.5 C 170.313,70.1052 177.98,70.9386 185.5,73C 192.043,75.8629 198.377,79.1963 204.5,83C 216.91,95.9593 221.41,111.459 218,129.5C 217.241,132.785 215.908,135.785 214,138.5C 212.299,136.59 210.133,135.423 207.5,135C 201.883,133.948 196.216,133.282 190.5,133C 182.24,116.282 168.74,108.116 150,108.5C 143.588,108.097 137.421,109.097 131.5,111.5C 132.128,104.742 133.962,98.0752 137,91.5C 139.392,88.772 141.392,85.772 143,82.5C 148.636,76.7808 155.136,72.7808 162.5,70.5 Z"/></g>
<g><path style="opacity:1" fill="#121212" d="M 83.5,73.5 C 90.9975,75.2775 98.3308,77.7775 105.5,81C 109.619,83.5736 109.452,85.7403 105,87.5C 98.1996,83.8966 91.0329,81.0632 83.5,79C 81.1027,77.2898 81.1027,75.4564 83.5,73.5 Z"/></g>
<g><path style="opacity:1" fill="#fdfdfd" d="M 204.5,241.5 C 198.824,241.334 193.157,241.501 187.5,242C 183.833,246.333 179.833,250.333 175.5,254C 170.752,256.29 166.085,258.457 161.5,260.5C 156.807,260.54 152.141,260.873 147.5,261.5C 144.09,261.543 140.757,261.043 137.5,260C 132.244,257.635 127.244,254.802 122.5,251.5C 116.877,255.037 110.877,257.37 104.5,258.5C 97.8198,258.388 91.1531,258.054 84.5,257.5C 82.0392,256.469 79.3725,255.802 76.5,255.5C 63.9435,247.727 57.6101,236.393 57.5,221.5C 52.7766,219.641 48.1099,217.474 43.5,215C 27.624,203.963 24.124,189.796 33,172.5C 36.0092,169.823 38.6758,166.823 41,163.5C 46.1521,159.504 51.9854,157.171 58.5,156.5C 58.335,153.15 58.5017,149.817 59,146.5C 63.7521,132.714 73.2521,124.38 87.5,121.5C 92.7968,120.725 98.1301,120.392 103.5,120.5C 108.075,121.102 112.575,122.102 117,123.5C 120.584,121.957 123.75,119.79 126.5,117C 140.837,109.179 155.504,108.513 170.5,115C 179.623,118.957 185.29,125.791 187.5,135.5C 204.954,133.982 218.454,140.316 228,154.5C 232.87,164.79 232.37,174.79 226.5,184.5C 229.195,188.03 231.695,191.696 234,195.5C 236.761,200.873 237.761,206.54 237,212.5C 232.263,229.074 221.429,238.741 204.5,241.5 Z"/></g>
<g><path style="opacity:1" fill="#949494" d="M 103.5,120.5 C 98.1301,120.392 92.7968,120.725 87.5,121.5C 90.356,119.994 93.5226,119.328 97,119.5C 99.3608,119.504 101.527,119.837 103.5,120.5 Z"/></g>
<g><path style="opacity:1" fill="#0a0a0a" d="M 231.5,144.5 C 241.122,144.971 250.455,146.804 259.5,150C 261.166,153.131 260.166,154.631 256.5,154.5C 247.793,153.198 239.293,151.198 231,148.5C 230.421,147.072 230.588,145.738 231.5,144.5 Z"/></g>
<g><path style="opacity:1" fill="#121212" d="M 147.5,158.5 C 149.988,160.056 150.988,162.389 150.5,165.5C 150.832,168.321 149.999,170.654 148,172.5C 145.491,167.849 145.324,163.182 147.5,158.5 Z"/></g>
<g><path style="opacity:1" fill="#0c0c0c" d="M 123.5,159.5 C 124.675,159.281 125.675,159.614 126.5,160.5C 127.833,164.5 127.833,168.5 126.5,172.5C 125.675,173.386 124.675,173.719 123.5,173.5C 123.5,168.833 123.5,164.167 123.5,159.5 Z"/></g>
<g><path style="opacity:1" fill="#0e0e0e" d="M 166.5,172.5 C 168.735,173.286 169.735,174.952 169.5,177.5C 167.751,191.731 160.917,202.731 149,210.5C 131.359,217.247 118.026,212.58 109,196.5C 107.655,194.17 107.488,191.837 108.5,189.5C 110.711,193.728 113.377,197.728 116.5,201.5C 132.923,212.63 147.09,210.297 159,194.5C 162.99,187.697 165.49,180.364 166.5,172.5 Z"/></g>
<g><path style="opacity:1" fill="#585858" d="M 204.5,242.5 C 206.5,242.5 208.5,242.5 210.5,242.5C 209.048,243.302 207.382,243.802 205.5,244C 199.509,244.499 193.509,244.666 187.5,244.5C 193.167,243.833 198.833,243.167 204.5,242.5 Z"/></g>
<g><path style="opacity:1" fill="#262626" d="M 204.5,241.5 C 204.5,241.833 204.5,242.167 204.5,242.5C 198.833,243.167 193.167,243.833 187.5,244.5C 183.161,251.17 177.494,256.504 170.5,260.5C 160.255,264.395 149.588,265.562 138.5,264C 132.831,261.839 127.498,259.006 122.5,255.5C 117.493,257.087 112.66,259.087 108,261.5C 96.3467,263.905 85.5134,262.239 75.5,256.5C 76.1667,256.5 76.5,256.167 76.5,255.5C 79.3725,255.802 82.0392,256.469 84.5,257.5C 88.4064,258.94 92.5731,259.606 97,259.5C 99.6903,259.497 102.19,259.164 104.5,258.5C 110.877,257.37 116.877,255.037 122.5,251.5C 127.244,254.802 132.244,257.635 137.5,260C 140.757,261.043 144.09,261.543 147.5,261.5C 148.274,262.147 149.274,262.48 150.5,262.5C 154.35,262.068 158.017,261.402 161.5,260.5C 166.085,258.457 170.752,256.29 175.5,254C 179.833,250.333 183.833,246.333 187.5,242C 193.157,241.501 198.824,241.334 204.5,241.5 Z"/></g>
<g><path style="opacity:1" fill="#848484" d="M 84.5,257.5 C 91.1531,258.054 97.8198,258.388 104.5,258.5C 102.19,259.164 99.6903,259.497 97,259.5C 92.5731,259.606 88.4064,258.94 84.5,257.5 Z"/></g>
<g><path style="opacity:1" fill="#8d8d8d" d="M 161.5,260.5 C 158.017,261.402 154.35,262.068 150.5,262.5C 149.274,262.48 148.274,262.147 147.5,261.5C 152.141,260.873 156.807,260.54 161.5,260.5 Z"/></g>
</svg>
