<?xml version="1.0" encoding="UTF-8"?>
<!DOCTYPE svg PUBLIC "-//W3C//DTD SVG 1.1//EN" "http://www.w3.org/Graphics/SVG/1.1/DTD/svg11.dtd">
<svg xmlns="http://www.w3.org/2000/svg" version="1.1" width="612px" height="581px" style="shape-rendering:geometricPrecision; text-rendering:geometricPrecision; image-rendering:optimizeQuality; fill-rule:evenodd; clip-rule:evenodd" xmlns:xlink="http://www.w3.org/1999/xlink">
<g><path style="opacity:1" fill="#fdfdfd" d="M -0.5,-0.5 C 203.5,-0.5 407.5,-0.5 611.5,-0.5C 611.5,193.167 611.5,386.833 611.5,580.5C 407.5,580.5 203.5,580.5 -0.5,580.5C -0.5,386.833 -0.5,193.167 -0.5,-0.5 Z"/></g>
<g><path style="opacity:1" fill="#0f0f0f" d="M 429.5,30.5 C 435.989,29.6323 438.489,32.299 437,38.5C 424.79,57.7504 412.957,77.2504 401.5,97C 398.783,98.033 396.949,97.1997 396,94.5C 395.333,92.1667 395.333,89.8333 396,87.5C 406.181,67.7868 417.348,48.7868 429.5,30.5 Z"/></g>
<g><path style="opacity:1" fill="#111111" d="M 271.5,35.5 C 275.95,35.1416 279.45,36.8083 282,40.5C 287.869,52.3537 294.536,63.6871 302,74.5C 303.72,80.4443 301.553,82.9443 295.5,82C 285.955,69.7559 277.789,56.5892 271,42.5C 270.444,40.1152 270.61,37.7819 271.5,35.5 Z"/></g>
<g><path style="opacity:1" fill="#161616" d="M 199.5,210.5 C 202.689,210.142 205.689,209.475 208.5,208.5C 217.173,208.334 225.84,208.5 234.5,209C 241.456,210.989 248.456,212.822 255.5,214.5C 257.634,214.485 259.634,213.985 261.5,213C 265.397,209.469 269.564,206.303 274,203.5C 278.19,169.026 294.357,141.859 322.5,122C 341.369,113.446 361.036,111.112 381.5,115C 400.687,120.174 419.021,127.507 436.5,137C 464.643,159.724 476.143,189.224 471,225.5C 469.964,228.753 469.297,232.086 469,235.5C 466.949,240.061 465.116,244.728 463.5,249.5C 463.667,250.5 463.833,251.5 464,252.5C 490.668,272.135 497.501,297.302 484.5,328C 488.019,334.861 492.186,341.361 497,347.5C 506.883,381.18 496.716,407.013 466.5,425C 456.453,430.144 445.786,433.144 434.5,434C 422.862,435.102 411.195,435.768 399.5,436C 384.352,455.074 364.685,466.074 340.5,469C 325.137,469.837 309.803,469.504 294.5,468C 285.215,464.202 276.549,459.368 268.5,453.5C 240.413,469.082 211.079,471.582 180.5,461C 151.43,449.766 136.096,428.599 134.5,397.5C 131.059,397.699 127.726,397.199 124.5,396C 114.669,390.586 105.002,384.919 95.5,379C 70.9802,353.562 69.1468,326.729 90,298.5C 96.312,291.851 103.479,286.351 111.5,282C 119.585,278.919 127.585,275.752 135.5,272.5C 136.774,255.027 144.107,240.527 157.5,229C 169.665,218.752 183.665,212.586 199.5,210.5 Z"/></g>
<g><path style="opacity:1" fill="#101010" d="M 523.5,120.5 C 531.993,119.471 534.327,122.637 530.5,130C 514.833,138.831 499.5,148.164 484.5,158C 481.016,160.267 477.349,160.767 473.5,159.5C 471.885,155.485 472.885,152.319 476.5,150C 491.894,139.642 507.561,129.808 523.5,120.5 Z"/></g>
<g><path style="opacity:1" fill="#fafafa" d="M 345.5,124.5 C 360.355,123.683 375.022,124.85 389.5,128C 402.183,132.508 414.516,137.841 426.5,144C 447.285,157.054 458.785,175.887 461,200.5C 462.742,213.977 461.076,226.977 456,239.5C 455.215,241.286 454.049,242.786 452.5,244C 445.241,242.703 437.908,241.37 430.5,240C 429.672,239.085 428.672,238.419 427.5,238C 419.115,237.639 410.781,236.806 402.5,235.5C 389.057,210.904 368.39,196.738 340.5,193C 328.5,192.333 316.5,192.333 304.5,193C 297.983,194.268 291.649,196.102 285.5,198.5C 290.106,168.682 305.439,145.849 331.5,130C 336.306,128.237 340.972,126.404 345.5,124.5 Z"/></g>
<g><path style="opacity:1" fill="#0f0f0f" d="M 189.5,131.5 C 192.518,131.335 195.518,131.502 198.5,132C 212.112,136.201 225.279,141.367 238,147.5C 238.667,153.161 236.167,155.328 230.5,154C 216.637,149.934 202.97,145.268 189.5,140C 186.985,137.22 186.985,134.386 189.5,131.5 Z"/></g>
<g><path style="opacity:1" fill="#fcfcfc" d="M 495.5,358.5 C 495.5,366.833 495.5,375.167 495.5,383.5C 487.639,406.856 471.639,421.356 447.5,427C 430.991,430.876 414.324,432.209 397.5,431C 368.645,465.053 332.978,474.72 290.5,460C 282.972,456.404 275.639,452.571 268.5,448.5C 262.998,451.282 257.331,453.782 251.5,456C 245.236,457.599 238.903,458.766 232.5,459.5C 220.83,460.755 209.163,460.755 197.5,459.5C 161.443,452.774 141.777,431.107 138.5,394.5C 119.445,390.398 103.612,381.065 91,366.5C 75.8819,343.315 77.3819,321.149 95.5,300C 107.907,288.297 122.573,281.13 139.5,278.5C 141.423,274.971 142.089,270.971 141.5,266.5C 143.858,249.989 152.191,237.156 166.5,228C 193.776,212.117 222.442,209.117 252.5,219C 255.5,219.667 258.5,219.667 261.5,219C 292.98,194.218 327.313,189.551 364.5,205C 381.03,212.031 392.697,223.864 399.5,240.5C 412.936,241.675 426.27,243.508 439.5,246C 447.167,249.667 454.833,253.333 462.5,257C 467,261.5 471.5,266 476,270.5C 489.385,289.542 489.885,309.042 477.5,329C 484.927,337.935 490.927,347.768 495.5,358.5 Z"/></g>
<g><path style="opacity:1" fill="#7b7b7b" d="M 208.5,208.5 C 205.689,209.475 202.689,210.142 199.5,210.5C 202.123,208.735 205.123,208.068 208.5,208.5 Z"/></g>
<g><path style="opacity:1" fill="#0e0e0e" d="M 513.5,259.5 C 515.438,261.163 517.772,261.829 520.5,261.5C 528.206,263.343 535.872,265.343 543.5,267.5C 544.749,273.076 542.583,275.743 537,275.5C 520.82,272.464 504.653,269.297 488.5,266C 485.034,263.339 484.701,260.339 487.5,257C 496.212,257.504 504.878,258.337 513.5,259.5 Z"/></g>
<g><path style="opacity:1" fill="#979797" d="M 513.5,259.5 C 516.152,259.41 518.485,260.076 520.5,261.5C 517.772,261.829 515.438,261.163 513.5,259.5 Z"/></g>
<g><path style="opacity:1" fill="#7e7e7e" d="M 141.5,266.5 C 142.089,270.971 141.423,274.971 139.5,278.5C 140.109,274.395 140.775,270.395 141.5,266.5 Z"/></g>
<g><path style="opacity:1" fill="#161616" d="M 271.5,283.5 C 273.722,283.178 275.556,283.845 277,285.5C 277.667,292.5 277.667,299.5 277,306.5C 275.491,308.919 273.325,309.919 270.5,309.5C 270.289,300.8 270.623,292.133 271.5,283.5 Z"/></g>
<g><path style="opacity:1" fill="#171717" d="M 317.5,283.5 C 320.808,282.974 322.974,284.307 324,287.5C 324.667,292.5 324.667,297.5 324,302.5C 322.994,305.89 320.994,306.89 318,305.5C 315.947,299.298 315.28,292.965 316,286.5C 316.513,285.473 317.013,284.473 317.5,283.5 Z"/></g>
<g><path style="opacity:1" fill="#111111" d="M 356.5,308.5 C 358.948,308.01 360.615,308.843 361.5,311C 359.604,344.539 342.937,366.872 311.5,378C 299.167,378.667 286.833,378.667 274.5,378C 270.196,375.229 265.529,373.229 260.5,372C 256.301,367.466 251.801,363.299 247,359.5C 244.139,355.112 241.806,350.446 240,345.5C 239.126,342.621 239.46,339.955 241,337.5C 255.992,364.911 278.825,375.411 309.5,369C 329.55,361.951 343.384,348.451 351,328.5C 351.905,321.544 353.738,314.878 356.5,308.5 Z"/></g>
<g><path style="opacity:1" fill="#b7b7b7" d="M 495.5,358.5 C 497.048,362.034 497.714,365.867 497.5,370C 497.634,374.758 496.968,379.258 495.5,383.5C 495.5,375.167 495.5,366.833 495.5,358.5 Z"/></g>
<g><path style="opacity:1" fill="#a0a0a0" d="M 197.5,459.5 C 209.163,460.755 220.83,460.755 232.5,459.5C 231.737,460.268 230.737,460.768 229.5,461C 225.167,461.167 220.833,461.333 216.5,461.5C 209.928,461.68 203.595,461.014 197.5,459.5 Z"/></g>
<g><path style="opacity:1" fill="#858585" d="M 256.5,498.5 C 258.388,496.012 259.055,493.012 258.5,489.5C 257.041,489.433 255.708,489.766 254.5,490.5C 255.552,488.744 257.219,488.077 259.5,488.5C 259.5,492.167 259.5,495.833 259.5,499.5C 258.209,499.737 257.209,499.404 256.5,498.5 Z"/></g>
<g><path style="opacity:1" fill="#121212" d="M 256.5,498.5 C 254.631,496.365 253.964,493.698 254.5,490.5C 255.708,489.766 257.041,489.433 258.5,489.5C 259.055,493.012 258.388,496.012 256.5,498.5 Z"/></g>
<g><path style="opacity:1" fill="#8f8f8f" d="M 430.5,492.5 C 426.958,492.187 423.625,492.521 420.5,493.5C 419.957,493.44 419.624,493.107 419.5,492.5C 423.315,491.192 426.981,491.192 430.5,492.5 Z"/></g>
<g><path style="opacity:1" fill="#202020" d="M 430.5,492.5 C 431.496,508.325 431.83,524.325 431.5,540.5C 433.681,540.284 435.347,541.117 436.5,543C 432.289,544.083 428.622,543.25 425.5,540.5C 410.478,549.944 399.644,546.61 393,530.5C 391.747,516.99 397.747,508.99 411,506.5C 416.453,507.039 421.287,509.039 425.5,512.5C 426.466,510.604 426.799,508.604 426.5,506.5C 427.483,502.702 427.817,498.702 427.5,494.5C 425.5,494.5 423.5,494.5 421.5,494.5C 420.833,494.5 420.5,494.167 420.5,493.5C 423.625,492.521 426.958,492.187 430.5,492.5 Z"/></g>
<g><path style="opacity:1" fill="#252525" d="M 302.5,498.5 C 302.5,501.833 302.5,505.167 302.5,508.5C 309.5,508.5 316.5,508.5 323.5,508.5C 323.5,509.5 323.5,510.5 323.5,511.5C 322.5,511.5 321.5,511.5 320.5,511.5C 314.5,511.5 308.5,511.5 302.5,511.5C 302.179,517.026 302.512,522.36 303.5,527.5C 301.704,540.848 307.37,545.348 320.5,541C 323.143,539.564 325.81,539.398 328.5,540.5C 321.082,545.524 313.082,546.69 304.5,544C 302.622,542.457 301.122,540.624 300,538.5C 299.552,529.492 299.052,520.492 298.5,511.5C 295.436,511.856 292.769,511.023 290.5,509C 291.448,508.517 292.448,508.351 293.5,508.5C 295.5,508.5 297.5,508.5 299.5,508.5C 299.5,505.167 299.5,501.833 299.5,498.5C 299.5,497.5 299.5,496.5 299.5,495.5C 300.5,495.5 301.5,495.5 302.5,495.5C 302.5,496.5 302.5,497.5 302.5,498.5 Z"/></g>
<g><path style="opacity:1" fill="#222222" d="M 215.5,511.5 C 209.833,511.5 204.167,511.5 198.5,511.5C 198.179,516.695 198.513,521.695 199.5,526.5C 199.311,531.161 199.978,535.661 201.5,540C 208.514,541.962 215.514,541.796 222.5,539.5C 223.9,541.782 223.234,543.282 220.5,544C 213.782,545.513 207.115,545.513 200.5,544C 196.011,539.471 194.345,533.971 195.5,527.5C 195.5,522.167 195.5,516.833 195.5,511.5C 193.5,511.5 191.5,511.5 189.5,511.5C 188.508,511.672 187.842,511.338 187.5,510.5C 188.802,508.972 190.469,507.972 192.5,507.5C 193.649,507.209 194.316,506.376 194.5,505C 195.054,502.176 195.554,499.343 196,496.5C 196.414,496.043 196.914,495.709 197.5,495.5C 199.145,499.32 199.811,503.32 199.5,507.5C 206.639,507.178 213.639,508.012 220.5,510C 218.975,511.009 217.308,511.509 215.5,511.5 Z"/></g>
<g><path style="opacity:1" fill="#8e8e8e" d="M 421.5,494.5 C 423.5,494.5 425.5,494.5 427.5,494.5C 427.817,498.702 427.483,502.702 426.5,506.5C 426.5,502.833 426.5,499.167 426.5,495.5C 424.585,495.784 422.919,495.451 421.5,494.5 Z"/></g>
<g><path style="opacity:1" fill="#1d1d1d" d="M 515.5,499.5 C 516.5,499.5 517.5,499.5 518.5,499.5C 518.5,505.833 518.5,512.167 518.5,518.5C 522.833,518.5 527.167,518.5 531.5,518.5C 533.288,518.215 534.955,518.548 536.5,519.5C 536.376,520.107 536.043,520.44 535.5,520.5C 529.804,520.025 524.304,520.692 519,522.5C 517.584,528.715 517.084,535.048 517.5,541.5C 515.744,540.448 515.077,538.781 515.5,536.5C 515.5,531.5 515.5,526.5 515.5,521.5C 510.833,521.5 506.167,521.5 501.5,521.5C 500.5,521.5 499.5,521.5 498.5,521.5C 498.5,520.5 498.5,519.5 498.5,518.5C 504.167,518.5 509.833,518.5 515.5,518.5C 515.5,512.167 515.5,505.833 515.5,499.5 Z"/></g>
<g><path style="opacity:1" fill="#919191" d="M 518.5,499.5 C 519.49,505.31 519.823,511.31 519.5,517.5C 523.702,517.183 527.702,517.517 531.5,518.5C 527.167,518.5 522.833,518.5 518.5,518.5C 518.5,512.167 518.5,505.833 518.5,499.5 Z"/></g>
<g><path style="opacity:1" fill="#151515" d="M 566.5,499.5 C 567.833,499.5 569.167,499.5 570.5,499.5C 570.5,505.833 570.5,512.167 570.5,518.5C 576.598,517.883 582.265,518.55 587.5,520.5C 586.432,521.434 585.099,521.768 583.5,521.5C 579.167,521.5 574.833,521.5 570.5,521.5C 571.123,528.255 570.456,534.588 568.5,540.5C 567.167,534.5 565.833,528.5 564.5,522.5C 559.783,520.762 554.783,520.096 549.5,520.5C 554.735,518.55 560.402,517.883 566.5,518.5C 566.5,512.167 566.5,505.833 566.5,499.5 Z"/></g>
<g><path style="opacity:1" fill="#909090" d="M 299.5,498.5 C 299.5,501.833 299.5,505.167 299.5,508.5C 297.5,508.5 295.5,508.5 293.5,508.5C 294.919,507.549 296.585,507.216 298.5,507.5C 298.19,504.287 298.523,501.287 299.5,498.5 Z"/></g>
<g><path style="opacity:1" fill="#1c1c1c" d="M 42.5,506.5 C 49.1997,505.734 55.1997,507.401 60.5,511.5C 63.9595,508.869 67.9595,507.869 72.5,508.5C 72.5,509.5 72.5,510.5 72.5,511.5C 70.8333,511.5 69.1667,511.5 67.5,511.5C 67.595,525.61 66.7617,539.61 65,553.5C 58.6935,560.436 50.8602,563.103 41.5,561.5C 41.5,559.833 41.5,558.167 41.5,556.5C 47.6948,556.893 53.6948,556.059 59.5,554C 63.0847,549.064 63.418,543.898 60.5,538.5C 43.688,547.865 33.688,543.032 30.5,524C 31.1559,515.85 35.1559,510.016 42.5,506.5 Z"/></g>
<g><path style="opacity:1" fill="#1f1f1f" d="M 153.5,522.5 C 157.167,522.5 160.833,522.5 164.5,522.5C 164.784,520.585 164.451,518.919 163.5,517.5C 161.987,512.077 158.321,509.743 152.5,510.5C 148.415,510.736 144.415,511.403 140.5,512.5C 139.571,511.311 139.238,509.978 139.5,508.5C 145.405,506.876 151.405,506.376 157.5,507C 161.468,507.964 164.635,510.131 167,513.5C 168.307,522.448 168.807,531.448 168.5,540.5C 170.842,540.504 172.842,541.337 174.5,543C 169.809,543.65 165.143,543.483 160.5,542.5C 154.34,544.792 148.007,545.625 141.5,545C 132.266,538.018 132.266,531.018 141.5,524C 145.466,523.172 149.466,522.672 153.5,522.5 Z"/></g>
<g><path style="opacity:1" fill="#1b1b1b" d="M 458.5,506.5 C 474.429,504.779 483.096,511.779 484.5,527.5C 472.833,527.5 461.167,527.5 449.5,527.5C 451.991,538.752 458.991,543.586 470.5,542C 474.884,541.094 479.051,539.594 483,537.5C 483.5,537.833 484,538.167 484.5,538.5C 473.811,546.988 462.644,547.654 451,540.5C 441.498,526.249 443.998,514.916 458.5,506.5 Z"/></g>
<g><path style="opacity:1" fill="#242424" d="M 109.5,507.5 C 114.603,506.664 118.937,507.998 122.5,511.5C 118.567,511.83 114.567,511.997 110.5,512C 106.4,514.467 102.566,517.301 99,520.5C 98.5005,526.825 98.3338,533.158 98.5,539.5C 104.118,540.696 109.784,541.696 115.5,542.5C 105.167,543.833 94.8333,543.833 84.5,542.5C 87.3908,541.322 90.3908,540.655 93.5,540.5C 93.5,530.833 93.5,521.167 93.5,511.5C 91.1667,511.5 88.8333,511.5 86.5,511.5C 86.5,510.5 86.5,509.5 86.5,508.5C 90.1667,508.5 93.8333,508.5 97.5,508.5C 97.5,510.5 97.5,512.5 97.5,514.5C 98.8734,514.657 100.207,514.49 101.5,514C 103.776,511.211 106.443,509.044 109.5,507.5 Z"/></g>
<g><path style="opacity:1" fill="#888888" d="M 192.5,507.5 C 190.469,507.972 188.802,508.972 187.5,510.5C 186.596,509.791 186.263,508.791 186.5,507.5C 188.5,507.5 190.5,507.5 192.5,507.5 Z"/></g>
<g><path style="opacity:1" fill="#8e8e8e" d="M 302.5,498.5 C 303.477,501.287 303.81,504.287 303.5,507.5C 310.354,507.176 317.021,507.509 323.5,508.5C 316.5,508.5 309.5,508.5 302.5,508.5C 302.5,505.167 302.5,501.833 302.5,498.5 Z"/></g>
<g><path style="opacity:1" fill="#1e1e1e" d="M 259.5,514.5 C 259.5,523.5 259.5,532.5 259.5,541.5C 262.5,541.5 265.5,541.5 268.5,541.5C 270.924,541.192 273.257,541.526 275.5,542.5C 263.833,543.833 252.167,543.833 240.5,542.5C 245.772,541.322 251.105,540.655 256.5,540.5C 256.5,537.5 256.5,534.5 256.5,531.5C 257.491,525.021 257.824,518.354 257.5,511.5C 253.833,511.5 250.167,511.5 246.5,511.5C 244.952,511.179 244.285,510.179 244.5,508.5C 249.5,508.5 254.5,508.5 259.5,508.5C 259.5,510.5 259.5,512.5 259.5,514.5 Z"/></g>
<g><path style="opacity:1" fill="#1f1f1f" d="M 373.5,525.5 C 374.486,521.03 374.819,516.363 374.5,511.5C 372.167,511.5 369.833,511.5 367.5,511.5C 365.952,511.179 365.285,510.179 365.5,508.5C 369.5,508.5 373.5,508.5 377.5,508.5C 377.5,510.5 377.5,512.5 377.5,514.5C 376.862,523.895 377.529,532.895 379.5,541.5C 380.376,541.369 381.043,541.702 381.5,542.5C 378.119,543.897 374.953,543.564 372,541.5C 365.806,544.57 359.306,545.736 352.5,545C 349.533,542.9 347.7,540.066 347,536.5C 346.31,528.174 345.81,519.841 345.5,511.5C 344.167,511.5 342.833,511.5 341.5,511.5C 341.5,510.5 341.5,509.5 341.5,508.5C 344.167,508.5 346.833,508.5 349.5,508.5C 349.318,517.87 349.818,527.204 351,536.5C 352.529,540.031 355.196,542.031 359,542.5C 369.199,541.151 374.032,535.484 373.5,525.5 Z"/></g>
<g><path style="opacity:1" fill="#f3f3f3" d="M 404.5,510.5 C 421.007,508.839 428.173,516.172 426,532.5C 421.446,540.579 414.613,543.413 405.5,541C 397.807,536.27 394.974,529.437 397,520.5C 399.266,516.958 401.766,513.625 404.5,510.5 Z"/></g>
<g><path style="opacity:1" fill="#f2f2f2" d="M 42.5,510.5 C 57.7792,509.607 63.9459,516.607 61,531.5C 54.9743,540.245 47.4743,541.745 38.5,536C 31.0156,526.075 32.3489,517.575 42.5,510.5 Z"/></g>
<g><path style="opacity:1" fill="#959595" d="M 215.5,511.5 C 210.36,512.488 205.026,512.821 199.5,512.5C 199.5,517.167 199.5,521.833 199.5,526.5C 198.513,521.695 198.179,516.695 198.5,511.5C 204.167,511.5 209.833,511.5 215.5,511.5 Z"/></g>
<g><path style="opacity:1" fill="#929292" d="M 320.5,511.5 C 315.025,512.489 309.358,512.822 303.5,512.5C 303.5,517.5 303.5,522.5 303.5,527.5C 302.512,522.36 302.179,517.026 302.5,511.5C 308.5,511.5 314.5,511.5 320.5,511.5 Z"/></g>
<g><path style="opacity:1" fill="#f5f5f5" d="M 479.5,521.5 C 470.448,521.807 461.448,521.307 452.5,520C 451.748,519.329 451.414,518.496 451.5,517.5C 453.004,515.164 455.004,513.331 457.5,512C 462.167,511.333 466.833,511.333 471.5,512C 473.329,512.273 474.829,513.107 476,514.5C 477.879,516.527 479.046,518.86 479.5,521.5 Z"/></g>
<g><path style="opacity:1" fill="#898989" d="M 189.5,511.5 C 191.5,511.5 193.5,511.5 195.5,511.5C 195.5,516.833 195.5,522.167 195.5,527.5C 194.513,522.695 194.179,517.695 194.5,512.5C 192.585,512.784 190.919,512.451 189.5,511.5 Z"/></g>
<g><path style="opacity:1" fill="#858585" d="M 246.5,511.5 C 250.167,511.5 253.833,511.5 257.5,511.5C 257.824,518.354 257.491,525.021 256.5,531.5C 256.5,525.167 256.5,518.833 256.5,512.5C 252.958,512.813 249.625,512.479 246.5,511.5 Z"/></g>
<g><path style="opacity:1" fill="#878787" d="M 367.5,511.5 C 369.833,511.5 372.167,511.5 374.5,511.5C 374.819,516.363 374.486,521.03 373.5,525.5C 373.5,521.167 373.5,516.833 373.5,512.5C 371.265,512.795 369.265,512.461 367.5,511.5 Z"/></g>
<g><path style="opacity:1" fill="#8b8b8b" d="M 515.5,499.5 C 515.5,505.833 515.5,512.167 515.5,518.5C 509.833,518.5 504.167,518.5 498.5,518.5C 503.64,517.512 508.974,517.179 514.5,517.5C 514.177,511.31 514.51,505.31 515.5,499.5 Z"/></g>
<g><path style="opacity:1" fill="#8b8b8b" d="M 566.5,499.5 C 566.5,505.833 566.5,512.167 566.5,518.5C 560.402,517.883 554.735,518.55 549.5,520.5C 548.596,519.791 548.263,518.791 548.5,517.5C 554.167,517.5 559.833,517.5 565.5,517.5C 565.177,511.31 565.51,505.31 566.5,499.5 Z"/></g>
<g><path style="opacity:1" fill="#8a8a8a" d="M 570.5,499.5 C 571.49,505.31 571.823,511.31 571.5,517.5C 577.167,517.5 582.833,517.5 588.5,517.5C 588.737,518.791 588.404,519.791 587.5,520.5C 582.265,518.55 576.598,517.883 570.5,518.5C 570.5,512.167 570.5,505.833 570.5,499.5 Z"/></g>
<g><path style="opacity:1" fill="#6d6d6d" d="M 549.5,520.5 C 554.783,520.096 559.783,520.762 564.5,522.5C 559.29,522.392 554.29,521.725 549.5,520.5 Z"/></g>
<g><path style="opacity:1" fill="#939393" d="M 163.5,517.5 C 164.451,518.919 164.784,520.585 164.5,522.5C 160.833,522.5 157.167,522.5 153.5,522.5C 156.625,521.521 159.958,521.187 163.5,521.5C 163.5,520.167 163.5,518.833 163.5,517.5 Z"/></g>
<g><path style="opacity:1" fill="#b4b4b4" d="M 451.5,517.5 C 451.414,518.496 451.748,519.329 452.5,520C 461.448,521.307 470.448,521.807 479.5,521.5C 476.038,522.482 472.371,522.815 468.5,522.5C 461.745,523.123 455.412,522.456 449.5,520.5C 449.932,519.29 450.599,518.29 451.5,517.5 Z"/></g>
<g><path style="opacity:1" fill="#575757" d="M 449.5,520.5 C 455.412,522.456 461.745,523.123 468.5,522.5C 462.021,523.491 455.354,523.824 448.5,523.5C 448.263,522.209 448.596,521.209 449.5,520.5 Z"/></g>
<g><path style="opacity:1" fill="#919191" d="M 501.5,521.5 C 506.167,521.5 510.833,521.5 515.5,521.5C 515.5,526.5 515.5,531.5 515.5,536.5C 514.514,532.03 514.181,527.363 514.5,522.5C 509.968,522.818 505.634,522.485 501.5,521.5 Z"/></g>
<g><path style="opacity:1" fill="#686868" d="M 535.5,520.5 C 530.45,521.617 525.283,522.617 520,523.5C 519.618,529.706 518.785,535.706 517.5,541.5C 517.084,535.048 517.584,528.715 519,522.5C 524.304,520.692 529.804,520.025 535.5,520.5 Z"/></g>
<g><path style="opacity:1" fill="#8b8b8b" d="M 583.5,521.5 C 579.702,522.483 575.702,522.817 571.5,522.5C 571.5,528.833 571.5,535.167 571.5,541.5C 570.209,541.737 569.209,541.404 568.5,540.5C 570.456,534.588 571.123,528.255 570.5,521.5C 574.833,521.5 579.167,521.5 583.5,521.5 Z"/></g>
<g><path style="opacity:1" fill="#969696" d="M 259.5,514.5 C 260.493,522.984 260.826,531.651 260.5,540.5C 263.385,540.194 266.052,540.527 268.5,541.5C 265.5,541.5 262.5,541.5 259.5,541.5C 259.5,532.5 259.5,523.5 259.5,514.5 Z"/></g>
<g><path style="opacity:1" fill="#949494" d="M 377.5,514.5 C 378.192,523.401 378.859,532.401 379.5,541.5C 377.529,532.895 376.862,523.895 377.5,514.5 Z"/></g>
<g><path style="opacity:1" fill="#eeeeee" d="M 148.5,524.5 C 153.434,524.256 158.101,525.256 162.5,527.5C 163.562,530.103 163.728,532.77 163,535.5C 156.861,541.064 149.694,542.897 141.5,541C 139.571,537.744 139.071,534.244 140,530.5C 142.988,528.601 145.821,526.601 148.5,524.5 Z"/></g>
</svg>
