<?xml version="1.0" encoding="UTF-8"?>
<!DOCTYPE svg PUBLIC "-//W3C//DTD SVG 1.1//EN" "http://www.w3.org/Graphics/SVG/1.1/DTD/svg11.dtd">
<svg xmlns="http://www.w3.org/2000/svg" version="1.1" width="1200px" height="1200px" style="shape-rendering:geometricPrecision; text-rendering:geometricPrecision; image-rendering:optimizeQuality; fill-rule:evenodd; clip-rule:evenodd" xmlns:xlink="http://www.w3.org/1999/xlink">
<g><path style="opacity:1" fill="#fefefe" d="M -0.5,-0.5 C 399.5,-0.5 799.5,-0.5 1199.5,-0.5C 1199.5,399.5 1199.5,799.5 1199.5,1199.5C 799.5,1199.5 399.5,1199.5 -0.5,1199.5C -0.5,799.5 -0.5,399.5 -0.5,-0.5 Z"/></g>
<g><path style="opacity:1" fill="#090909" d="M 734.5,316.5 C 740.496,315.333 742.996,317.666 742,323.5C 730.251,341.456 719.251,359.79 709,378.5C 705.339,385.269 702.173,385.103 699.5,378C 699.921,375.815 700.421,373.649 701,371.5C 706.974,359.886 713.307,348.553 720,337.5C 724.351,330.119 729.184,323.119 734.5,316.5 Z"/></g>
<g><path style="opacity:1" fill="#0a0a0a" d="M 576.5,321.5 C 580.594,320.705 583.761,322.038 586,325.5C 592.217,337.596 599.217,349.262 607,360.5C 608.187,365.158 606.353,367.825 601.5,368.5C 600.328,368.081 599.328,367.415 598.5,366.5C 589.326,353.645 581.326,340.145 574.5,326C 574.519,324.167 575.185,322.667 576.5,321.5 Z"/></g>
<g><path style="opacity:1" fill="#0e0e0e" d="M 776.5,509.5 C 775.076,511.515 774.41,513.848 774.5,516.5C 773.367,519.738 772.533,523.071 772,526.5C 769.26,529.647 767.927,533.314 768,537.5C 795.073,557.518 801.906,583.018 788.5,614C 792.609,620.127 796.776,626.294 801,632.5C 809.79,655.199 806.623,675.866 791.5,694.5C 781.51,705.323 769.51,712.823 755.5,717C 738.665,720.65 721.665,721.984 704.5,721C 692.475,736.052 677.475,746.719 659.5,753C 638.5,756.333 617.5,756.333 596.5,753C 589.356,749.339 582.356,745.506 575.5,741.5C 573.833,738.833 572.167,738.833 570.5,741.5C 565.217,743.144 560.217,745.311 555.5,748C 549.792,749.415 544.125,750.749 538.5,752C 524.709,754.189 511.042,753.522 497.5,750C 475.417,745.243 458.251,733.41 446,714.5C 443.65,707.143 441.316,699.809 439,692.5C 438.502,689.518 438.335,686.518 438.5,683.5C 434.951,683.561 431.618,682.727 428.5,681C 418.34,676.09 408.674,670.423 399.5,664C 380.85,646.041 375.683,624.541 384,599.5C 395.163,578.675 412.329,565.842 435.5,561C 437.333,559.833 439.167,558.667 441,557.5C 441.333,552.5 441.667,547.5 442,542.5C 449.235,525.592 461.068,512.758 477.5,504C 486.412,499.792 495.746,496.959 505.5,495.5C 509.312,494.974 512.979,494.307 516.5,493.5C 531.055,492.644 545.055,494.811 558.5,500C 560.167,500.667 561.833,500.667 563.5,500C 568.667,496.167 573.833,492.333 579,488.5C 582.634,454.519 598.467,427.685 626.5,408C 632.555,405.869 638.555,403.536 644.5,401C 662.02,397.343 679.353,398.01 696.5,403C 711.798,407.99 726.465,414.323 740.5,422C 745.333,426.167 750.167,430.333 755,434.5C 766.325,448.495 773.325,464.495 776,482.5C 776.5,491.494 776.666,500.494 776.5,509.5 Z"/></g>
<g><path style="opacity:1" fill="#0a0a0a" d="M 829.5,405.5 C 836.31,405.063 838.643,408.063 836.5,414.5C 820.682,423.833 805.015,433.333 789.5,443C 786.725,444.649 783.725,445.816 780.5,446.5C 776.746,445.148 775.579,442.482 777,438.5C 794.073,426.562 811.573,415.562 829.5,405.5 Z"/></g>
<g><path style="opacity:1" fill="#fcfcfc" d="M 653.5,409.5 C 661.507,409.334 669.507,409.5 677.5,410C 682.318,411.869 687.318,412.869 692.5,413C 704.837,417.138 716.837,422.138 728.5,428C 735.961,432.802 742.794,438.302 749,444.5C 753.214,450.279 756.88,456.279 760,462.5C 765.318,478.653 766.984,495.32 765,512.5C 763.124,517.082 761.457,521.749 760,526.5C 758.66,527.868 757.326,529.201 756,530.5C 749.058,527.91 741.892,526.077 734.5,525C 733.328,524.581 732.328,523.915 731.5,523C 723.479,522.832 715.479,522.332 707.5,521.5C 696.375,500.384 679.375,486.55 656.5,480C 641.301,477.546 625.968,476.879 610.5,478C 603.335,479.335 596.335,481.168 589.5,483.5C 595.065,453.641 610.732,430.974 636.5,415.5C 642.236,413.496 647.903,411.496 653.5,409.5 Z"/></g>
<g><path style="opacity:1" fill="#0a0a0a" d="M 494.5,416.5 C 497.187,416.336 499.854,416.503 502.5,417C 514.569,421.379 526.569,425.712 538.5,430C 544.892,433.352 545.058,436.852 539,440.5C 522.952,436.035 507.285,430.701 492,424.5C 491.018,421.225 491.851,418.559 494.5,416.5 Z"/></g>
<g><path style="opacity:1" fill="#fdfdfd" d="M 800.5,644.5 C 800.5,652.5 800.5,660.5 800.5,668.5C 795.193,683.991 785.526,696.157 771.5,705C 749.748,715.264 726.748,718.93 702.5,716C 696.178,723.131 689.511,729.798 682.5,736C 675.141,740.8 667.474,744.8 659.5,748C 628.209,756.114 599.375,751.281 573,733.5C 561.843,740.173 549.676,744.173 536.5,745.5C 525.51,746.557 514.51,746.557 503.5,745.5C 475.118,741.721 455.952,726.388 446,699.5C 444.702,693.228 443.702,686.894 443,680.5C 432.121,676.972 421.621,672.472 411.5,667C 409.07,664.555 406.404,662.555 403.5,661C 380.738,638.735 378.571,614.568 397,588.5C 401.159,585.341 404.992,581.841 408.5,578C 419.813,570.508 432.146,565.674 445.5,563.5C 445.209,557.077 445.542,550.744 446.5,544.5C 447.906,544.027 448.573,543.027 448.5,541.5C 451.627,532.199 456.96,524.366 464.5,518C 486.235,502.635 510.568,496.301 537.5,499C 545.516,501.582 553.682,503.749 562,505.5C 563.167,505.333 564.333,505.167 565.5,505C 601.031,477.376 638.698,474.043 678.5,495C 684.469,499.245 689.969,504.078 695,509.5C 698.294,515.253 701.46,521.087 704.5,527C 716.605,526.963 728.605,527.963 740.5,530C 749.157,533.983 757.824,537.983 766.5,542C 770.667,546.167 774.833,550.333 779,554.5C 785.512,562.685 789.679,571.852 791.5,582C 790.428,588.126 789.594,594.293 789,600.5C 786.262,605.063 783.762,609.729 781.5,614.5C 789.495,623.485 795.828,633.485 800.5,644.5 Z"/></g>
<g><path style="opacity:1" fill="#7d7d7d" d="M 516.5,493.5 C 512.979,494.307 509.312,494.974 505.5,495.5C 505.611,494.883 505.944,494.383 506.5,494C 509.817,493.502 513.15,493.335 516.5,493.5 Z"/></g>
<g><path style="opacity:1" fill="#949494" d="M 776.5,509.5 C 776.59,512.152 775.924,514.485 774.5,516.5C 774.41,513.848 775.076,511.515 776.5,509.5 Z"/></g>
<g><path style="opacity:1" fill="#080808" d="M 816.5,544.5 C 818.515,545.924 820.848,546.59 823.5,546.5C 832.032,548.046 840.199,550.379 848,553.5C 848.927,558.967 846.594,561.633 841,561.5C 824.585,558.065 808.085,554.565 791.5,551C 788.096,545.861 789.43,542.694 795.5,541.5C 802.392,543.307 809.392,544.307 816.5,544.5 Z"/></g>
<g><path style="opacity:1" fill="#7b7b7b" d="M 448.5,541.5 C 448.573,543.027 447.906,544.027 446.5,544.5C 446.427,542.973 447.094,541.973 448.5,541.5 Z"/></g>
<g><path style="opacity:1" fill="#969696" d="M 816.5,544.5 C 819.152,544.41 821.485,545.076 823.5,546.5C 820.848,546.59 818.515,545.924 816.5,544.5 Z"/></g>
<g><path style="opacity:1" fill="#111111" d="M 576.5,568.5 C 579.292,568.452 581.125,569.785 582,572.5C 582.667,578.833 582.667,585.167 582,591.5C 580.492,593.838 578.325,594.838 575.5,594.5C 573.842,585.673 574.176,577.007 576.5,568.5 Z"/></g>
<g><path style="opacity:1" fill="#131313" d="M 622.5,568.5 C 624.903,568.393 626.736,569.393 628,571.5C 629.359,576.775 629.692,582.109 629,587.5C 628.027,589.64 626.527,591.307 624.5,592.5C 623.522,592.023 622.689,591.357 622,590.5C 621.246,585.983 620.412,581.483 619.5,577C 619.622,573.796 620.622,570.963 622.5,568.5 Z"/></g>
<g><path style="opacity:1" fill="#0a0a0a" d="M 661.5,593.5 C 663.39,593.297 664.89,593.963 666,595.5C 665.209,625.967 651.042,647.801 623.5,661C 620.367,660.954 617.7,661.954 615.5,664C 603.833,664.667 592.167,664.667 580.5,664C 575.431,661.134 570.098,658.801 564.5,657C 560.633,652.798 556.467,648.965 552,645.5C 547.512,639.86 544.678,633.527 543.5,626.5C 543.342,624.681 544.009,623.348 545.5,622.5C 548.609,626.988 551.443,631.654 554,636.5C 573.452,656.819 596.285,661.986 622.5,652C 632.15,646.693 640.317,639.527 647,630.5C 650.927,624.114 654.26,617.447 657,610.5C 657.202,604.408 658.702,598.741 661.5,593.5 Z"/></g>
<g><path style="opacity:1" fill="#bcbcbc" d="M 800.5,644.5 C 803.167,652.5 803.167,660.5 800.5,668.5C 800.5,660.5 800.5,652.5 800.5,644.5 Z"/></g>
<g><path style="opacity:1" fill="#a1a1a1" d="M 575.5,741.5 C 573.833,741.5 572.167,741.5 570.5,741.5C 572.167,738.833 573.833,738.833 575.5,741.5 Z"/></g>
<g><path style="opacity:1" fill="#c6c6c6" d="M 503.5,745.5 C 514.51,746.557 525.51,746.557 536.5,745.5C 532.797,747.055 528.797,747.722 524.5,747.5C 517.304,747.319 510.304,746.652 503.5,745.5 Z"/></g>
<g><path style="opacity:1" fill="#101010" d="M 559.5,774.5 C 560.833,774.5 562.167,774.5 563.5,774.5C 563.5,777.833 563.5,781.167 563.5,784.5C 561.856,784.714 560.356,784.38 559,783.5C 558.264,780.408 558.431,777.408 559.5,774.5 Z"/></g>
<g><path style="opacity:1" fill="#131313" d="M 724.5,777.5 C 728.167,777.5 731.833,777.5 735.5,777.5C 735.333,793.503 735.5,809.503 736,825.5C 738.176,825.988 740.009,826.988 741.5,828.5C 738.232,829.487 734.898,829.82 731.5,829.5C 731.762,828.022 731.429,826.689 730.5,825.5C 717.388,835.036 706.555,833.036 698,819.5C 694.983,806.546 699.483,797.38 711.5,792C 718.802,791.244 725.135,793.411 730.5,798.5C 731.496,792.537 731.829,786.537 731.5,780.5C 729.473,780.662 727.473,780.495 725.5,780C 724.748,779.329 724.414,778.496 724.5,777.5 Z"/></g>
<g><path style="opacity:1" fill="#191919" d="M 524.5,829.5 C 520.618,829.849 516.785,830.515 513,831.5C 511.408,831.395 509.908,831.061 508.5,830.5C 504.081,829.537 501.247,826.87 500,822.5C 499.5,814.173 499.334,805.84 499.5,797.5C 497.143,797.663 494.81,797.497 492.5,797C 491.663,795.989 491.33,794.822 491.5,793.5C 494.119,793.768 496.619,793.435 499,792.5C 499.333,789.167 499.667,785.833 500,782.5C 500.689,781.643 501.522,780.977 502.5,780.5C 503.195,784.713 503.861,788.879 504.5,793C 511.668,793.037 518.668,793.704 525.5,795C 524.672,795.915 523.672,796.581 522.5,797C 516.175,797.5 509.842,797.666 503.5,797.5C 503.057,806.608 503.557,815.608 505,824.5C 507.827,826.961 511.16,827.961 515,827.5C 519.686,827.31 524.186,826.31 528.5,824.5C 529.088,827.305 527.755,828.972 524.5,829.5 Z"/></g>
<g><path style="opacity:1" fill="#1e1e1e" d="M 604.5,780.5 C 605.496,780.414 606.329,780.748 607,781.5C 607.499,785.486 607.666,789.486 607.5,793.5C 614.5,793.5 621.5,793.5 628.5,793.5C 628.67,794.822 628.337,795.989 627.5,797C 620.842,797.5 614.175,797.666 607.5,797.5C 607.334,805.84 607.5,814.173 608,822.5C 609.695,826.863 612.862,828.53 617.5,827.5C 622.156,827.258 626.656,826.258 631,824.5C 632.28,824.613 633.113,825.28 633.5,826.5C 628.426,829.012 623.092,830.678 617.5,831.5C 611.276,831.481 606.776,828.814 604,823.5C 603.832,814.814 603.332,806.148 602.5,797.5C 591.9,795.062 592.233,793.728 603.5,793.5C 603.231,789.069 603.564,784.735 604.5,780.5 Z"/></g>
<g><path style="opacity:1" fill="#151515" d="M 870.5,808.5 C 865.604,806.554 860.271,805.887 854.5,806.5C 853.596,805.791 853.263,804.791 853.5,803.5C 859.167,803.5 864.833,803.5 870.5,803.5C 870.5,797.167 870.5,790.833 870.5,784.5C 872.167,784.5 873.833,784.5 875.5,784.5C 875.5,790.833 875.5,797.167 875.5,803.5C 881.167,803.5 886.833,803.5 892.5,803.5C 892.67,804.822 892.337,805.989 891.5,807C 886.177,807.499 880.844,807.666 875.5,807.5C 875.5,813.833 875.5,820.167 875.5,826.5C 873.856,826.714 872.356,826.38 871,825.5C 870.501,819.843 870.334,814.176 870.5,808.5 Z"/></g>
<g><path style="opacity:1" fill="#1c1c1c" d="M 839.5,806.5 C 834.489,806.334 829.489,806.501 824.5,807C 824,807.5 823.5,808 823,808.5C 822.501,814.491 822.334,820.491 822.5,826.5C 821.811,827.774 820.977,827.774 820,826.5C 819.5,820.175 819.334,813.842 819.5,807.5C 814.156,807.666 808.823,807.499 803.5,807C 802.663,805.989 802.33,804.822 802.5,803.5C 808.167,803.5 813.833,803.5 819.5,803.5C 819.5,797.167 819.5,790.833 819.5,784.5C 820.833,784.5 822.167,784.5 823.5,784.5C 823.5,790.833 823.5,797.167 823.5,803.5C 829.537,803.171 835.537,803.504 841.5,804.5C 841.145,805.522 840.478,806.189 839.5,806.5 Z"/></g>
<g><path style="opacity:1" fill="#141414" d="M 348.5,791.5 C 355.097,790.969 360.763,792.969 365.5,797.5C 366.262,796.372 366.929,795.205 367.5,794C 370.817,793.502 374.15,793.335 377.5,793.5C 377.5,794.5 377.5,795.5 377.5,796.5C 375.533,796.261 373.699,796.594 372,797.5C 371.667,810.5 371.333,823.5 371,836.5C 365.08,845.906 356.58,849.24 345.5,846.5C 345.5,844.833 345.5,843.167 345.5,841.5C 350.844,841.666 356.177,841.499 361.5,841C 365.84,838.647 367.507,834.98 366.5,830C 366.167,827.833 365.833,825.667 365.5,823.5C 353.348,832.918 343.515,830.918 336,817.5C 332.871,805.175 337.038,796.509 348.5,791.5 Z"/></g>
<g><path style="opacity:1" fill="#161616" d="M 416.5,792.5 C 421.198,792.059 424.864,793.726 427.5,797.5C 426.833,797.833 426.167,798.167 425.5,798.5C 422.336,796.806 419.002,796.306 415.5,797C 411.244,800.045 407.077,803.212 403,806.5C 402.333,812.5 402.333,818.5 403,824.5C 408.208,826.259 413.708,827.093 419.5,827C 419.957,827.414 420.291,827.914 420.5,828.5C 409.833,829.833 399.167,829.833 388.5,828.5C 388.709,827.914 389.043,827.414 389.5,827C 392.426,826.782 395.26,826.282 398,825.5C 398.667,816.167 398.667,806.833 398,797.5C 395.619,796.565 393.119,796.232 390.5,796.5C 390.5,795.5 390.5,794.5 390.5,793.5C 394.5,793.5 398.5,793.5 402.5,793.5C 402.5,795.833 402.5,798.167 402.5,800.5C 405.439,800.082 407.772,798.582 409.5,796C 411.713,794.384 414.047,793.217 416.5,792.5 Z"/></g>
<g><path style="opacity:1" fill="#151515" d="M 454.5,791.5 C 461.932,790.805 467.765,793.472 472,799.5C 472.333,808.167 472.667,816.833 473,825.5C 475.501,825.95 477.667,826.95 479.5,828.5C 474.635,829.966 469.968,829.632 465.5,827.5C 461.073,829.15 456.573,830.484 452,831.5C 442.556,830.733 438.222,825.733 439,816.5C 441.175,813.624 443.675,811.124 446.5,809C 453.771,807.7 461.104,807.2 468.5,807.5C 469.204,803.197 467.87,799.697 464.5,797C 457.355,796.109 450.355,796.609 443.5,798.5C 443.286,796.856 443.62,795.356 444.5,794C 448.09,793.689 451.423,792.856 454.5,791.5 Z"/></g>
<g><path style="opacity:1" fill="#131313" d="M 765.5,791.5 C 770.382,791.193 775.049,792.026 779.5,794C 783.392,797.226 786.558,801.059 789,805.5C 789.667,807.833 789.667,810.167 789,812.5C 777.247,813.488 765.414,813.821 753.5,813.5C 757.07,825.46 765.07,829.96 777.5,827C 781.033,826.167 784.199,824.667 787,822.5C 788.059,822.63 788.892,823.13 789.5,824C 778.963,832.8 767.796,833.634 756,826.5C 744.755,810.694 747.922,799.027 765.5,791.5 Z"/></g>
<g><path style="opacity:1" fill="#191919" d="M 548.5,793.5 C 553.762,793.195 558.928,793.529 564,794.5C 564.5,805.161 564.667,815.828 564.5,826.5C 569.511,826.334 574.511,826.501 579.5,827C 579.957,827.414 580.291,827.914 580.5,828.5C 568.5,829.833 556.5,829.833 544.5,828.5C 544.709,827.914 545.043,827.414 545.5,827C 550.75,826.807 555.917,826.307 561,825.5C 561.5,816.173 561.666,806.839 561.5,797.5C 557.486,797.666 553.486,797.499 549.5,797C 548.663,795.989 548.33,794.822 548.5,793.5 Z"/></g>
<g><path style="opacity:1" fill="#191919" d="M 645.5,793.5 C 648.5,793.5 651.5,793.5 654.5,793.5C 654.334,802.839 654.5,812.173 655,821.5C 657.451,827.089 661.617,828.922 667.5,827C 671.813,825.694 675.313,823.194 678,819.5C 678.5,812.174 678.666,804.841 678.5,797.5C 675.813,797.664 673.146,797.497 670.5,797C 669.663,795.989 669.33,794.822 669.5,793.5C 673.767,793.203 677.934,793.536 682,794.5C 682.5,805.161 682.667,815.828 682.5,826.5C 684.346,826.222 685.68,826.889 686.5,828.5C 683.914,829.48 681.247,829.813 678.5,829.5C 678.719,828.325 678.386,827.325 677.5,826.5C 673.61,828.278 669.61,829.778 665.5,831C 657.756,832.253 652.922,829.086 651,821.5C 650.667,813.5 650.333,805.5 650,797.5C 648.644,796.62 647.144,796.286 645.5,796.5C 645.5,795.5 645.5,794.5 645.5,793.5 Z"/></g>
<g><path style="opacity:1" fill="#f8f8f8" d="M 347.5,796.5 C 361.999,795.494 368.166,802.161 366,816.5C 358.785,827.254 350.452,828.254 341,819.5C 336.021,809.665 338.187,801.998 347.5,796.5 Z"/></g>
<g><path style="opacity:1" fill="#f8f8f8" d="M 709.5,796.5 C 724.992,794.497 732.158,801.163 731,816.5C 727.054,825.49 720.22,828.99 710.5,827C 697.594,817.248 697.26,807.082 709.5,796.5 Z"/></g>
<g><path style="opacity:1" fill="#f8f8f8" d="M 783.5,807.5 C 773.442,808.14 763.775,807.473 754.5,805.5C 757.294,798.997 762.294,795.997 769.5,796.5C 773.198,796.158 776.531,796.991 779.5,799C 781.006,801.333 782.673,803.5 784.5,805.5C 784.457,806.416 784.124,807.083 783.5,807.5 Z"/></g>
<g><path style="opacity:1" fill="#666666" d="M 854.5,806.5 C 860.271,805.887 865.604,806.554 870.5,808.5C 865.065,807.877 859.732,807.21 854.5,806.5 Z"/></g>
<g><path style="opacity:1" fill="#c5c5c5" d="M 754.5,805.5 C 763.775,807.473 773.442,808.14 783.5,807.5C 773.681,808.494 763.681,808.827 753.5,808.5C 753.263,807.209 753.596,806.209 754.5,805.5 Z"/></g>
<g><path style="opacity:1" fill="#f4f4f4" d="M 453.5,810.5 C 457.967,810.133 462.3,810.633 466.5,812C 468.478,814.497 468.978,817.331 468,820.5C 462.019,826.573 454.852,828.74 446.5,827C 443.405,823.699 442.738,819.866 444.5,815.5C 447.698,814.007 450.698,812.34 453.5,810.5 Z"/></g>
<g><path style="opacity:1" fill="#4e4e4e" d="M 839.5,806.5 C 835.018,807.326 830.351,807.826 825.5,808C 825,808.5 824.5,809 824,809.5C 823.827,815.348 823.327,821.015 822.5,826.5C 822.334,820.491 822.501,814.491 823,808.5C 823.5,808 824,807.5 824.5,807C 829.489,806.501 834.489,806.334 839.5,806.5 Z"/></g>
<g><path style="opacity:1" fill="#b4b4b4" d="M 524.5,829.5 C 520.956,831.174 517.123,832.174 513,832.5C 511.014,832.431 509.514,831.765 508.5,830.5C 509.908,831.061 511.408,831.395 513,831.5C 516.785,830.515 520.618,829.849 524.5,829.5 Z"/></g>
</svg>
