<?xml version="1.0" encoding="UTF-8"?>
<!DOCTYPE svg PUBLIC "-//W3C//DTD SVG 1.1//EN" "http://www.w3.org/Graphics/SVG/1.1/DTD/svg11.dtd">
<svg xmlns="http://www.w3.org/2000/svg" version="1.1" width="893px" height="249px" style="shape-rendering:geometricPrecision; text-rendering:geometricPrecision; image-rendering:optimizeQuality; fill-rule:evenodd; clip-rule:evenodd" xmlns:xlink="http://www.w3.org/1999/xlink">
<g><path style="opacity:1" fill="#fefefe" d="M -0.5,-0.5 C 297.167,-0.5 594.833,-0.5 892.5,-0.5C 892.5,82.5 892.5,165.5 892.5,248.5C 594.833,248.5 297.167,248.5 -0.5,248.5C -0.5,165.5 -0.5,82.5 -0.5,-0.5 Z"/></g>
<g><path style="opacity:1" fill="#0b0b0b" d="M 211.5,10.5 C 214.68,10.1762 215.847,11.5096 215,14.5C 209.065,25.4277 202.732,36.0944 196,46.5C 193.094,44.5964 192.761,42.2631 195,39.5C 200.039,29.4044 205.539,19.7377 211.5,10.5 Z"/></g>
<g><path style="opacity:1" fill="#0c0c0c" d="M 132.5,13.5 C 134.39,13.2965 135.89,13.9632 137,15.5C 140.291,21.4743 143.624,27.4743 147,33.5C 147.824,36.7174 146.657,38.2174 143.5,38C 139.289,31.7471 135.455,25.2471 132,18.5C 131.36,16.735 131.527,15.0683 132.5,13.5 Z"/></g>
<g><path style="opacity:1" fill="#0e0e0e" d="M 170.5,54.5 C 189.518,54.4499 206.351,60.4499 221,72.5C 233.422,89.6812 235.588,108.015 227.5,127.5C 240.979,138.408 244.645,152.075 238.5,168.5C 241.237,172.971 243.737,177.637 246,182.5C 249.272,200.544 242.772,213.711 226.5,222C 216.334,224.608 206.001,226.108 195.5,226.5C 182.622,241.647 166.288,247.48 146.5,244C 141.041,241.771 135.708,239.271 130.5,236.5C 115.054,243.896 99.3877,244.396 83.5,238C 70.8495,230.868 64.1828,220.035 63.5,205.5C 51.006,202.837 41.8393,195.837 36,184.5C 31.1644,168.675 35.331,155.841 48.5,146C 53.5754,143.922 58.5754,141.756 63.5,139.5C 65.9322,122.845 75.2655,112.012 91.5,107C 103.073,103.108 114.239,103.942 125,109.5C 127.345,106.823 130.012,104.49 133,102.5C 134.496,84.7083 142.329,70.5416 156.5,60C 161.168,57.8201 165.834,55.9867 170.5,54.5 Z"/></g>
<g><path style="opacity:1" fill="#090909" d="M 257.5,58.5 C 262.587,58.2845 263.587,60.1178 260.5,64C 253.564,67.9396 246.897,72.273 240.5,77C 238.091,78.7068 235.425,79.5402 232.5,79.5C 232.081,76.6755 233.081,74.5088 235.5,73C 243.07,68.3915 250.403,63.5582 257.5,58.5 Z"/></g>
<g><path style="opacity:1" fill="#fcfcfc" d="M 169.5,60.5 C 176.555,60.2703 183.555,60.7703 190.5,62C 201.867,65.7646 211.701,71.9312 220,80.5C 226.106,91.6937 228.106,103.694 226,116.5C 225.421,119.588 224.087,122.255 222,124.5C 214.156,121.443 205.989,119.777 197.5,119.5C 189.138,103.731 175.971,96.0645 158,96.5C 151.737,96.081 145.737,97.081 140,99.5C 139.5,99.1667 139,98.8333 138.5,98.5C 142.012,83.5126 150.012,71.6792 162.5,63C 165.004,62.3024 167.337,61.4691 169.5,60.5 Z"/></g>
<g><path style="opacity:1" fill="#0f0f0f" d="M 91.5,63.5 C 99.0416,65.2919 106.375,67.7919 113.5,71C 116.589,75.0581 115.589,76.7247 110.5,76C 103.983,73.215 97.3164,70.715 90.5,68.5C 89.3482,66.6029 89.6815,64.9362 91.5,63.5 Z"/></g>
<g><path style="opacity:1" fill="#fdfdfd" d="M 150.5,98.5 C 161.687,98.0611 172.353,100.228 182.5,105C 185.011,107.843 187.844,110.343 191,112.5C 193.22,115.54 194.72,118.873 195.5,122.5C 213.406,121.038 227.239,127.705 237,142.5C 240.568,151.784 239.734,160.617 234.5,169C 249.493,187.433 247.493,203.766 228.5,218C 218,223.013 207,224.68 195.5,223C 179.75,242.383 160.417,247.049 137.5,237C 135.301,235.303 132.968,233.803 130.5,232.5C 115.271,240.764 99.6042,241.597 83.5,235C 71.6992,227.907 65.6992,217.407 65.5,203.5C 45.0442,198.896 35.5442,186.229 37,165.5C 42.6142,152.382 52.4475,144.715 66.5,142.5C 65.8225,130.022 70.8225,120.522 81.5,114C 95.5978,106.377 110.098,105.544 125,111.5C 128.584,109.957 131.75,107.79 134.5,105C 139.893,102.709 145.226,100.543 150.5,98.5 Z"/></g>
<g><path style="opacity:1" fill="#101010" d="M 528.5,115.5 C 529.833,115.5 531.167,115.5 532.5,115.5C 532.5,118.833 532.5,122.167 532.5,125.5C 530.856,125.714 529.356,125.38 528,124.5C 527.264,121.408 527.431,118.408 528.5,115.5 Z"/></g>
<g><path style="opacity:1" fill="#131313" d="M 693.5,118.5 C 697.167,118.5 700.833,118.5 704.5,118.5C 704.333,134.503 704.5,150.503 705,166.5C 707.176,166.988 709.009,167.988 710.5,169.5C 707.232,170.487 703.898,170.82 700.5,170.5C 700.762,169.022 700.429,167.689 699.5,166.5C 686.388,176.036 675.555,174.036 667,160.5C 663.983,147.546 668.483,138.38 680.5,133C 687.802,132.244 694.135,134.411 699.5,139.5C 700.496,133.537 700.829,127.537 700.5,121.5C 698.473,121.662 696.473,121.495 694.5,121C 693.748,120.329 693.414,119.496 693.5,118.5 Z"/></g>
<g><path style="opacity:1" fill="#191919" d="M 493.5,170.5 C 489.618,170.849 485.785,171.515 482,172.5C 480.408,172.395 478.908,172.061 477.5,171.5C 473.081,170.537 470.247,167.87 469,163.5C 468.5,155.173 468.334,146.84 468.5,138.5C 466.143,138.663 463.81,138.497 461.5,138C 460.663,136.989 460.33,135.822 460.5,134.5C 463.119,134.768 465.619,134.435 468,133.5C 468.333,130.167 468.667,126.833 469,123.5C 469.689,122.643 470.522,121.977 471.5,121.5C 472.195,125.713 472.861,129.879 473.5,134C 480.668,134.037 487.668,134.704 494.5,136C 493.672,136.915 492.672,137.581 491.5,138C 485.175,138.5 478.842,138.666 472.5,138.5C 472.057,147.608 472.557,156.608 474,165.5C 476.827,167.961 480.16,168.961 484,168.5C 488.686,168.31 493.186,167.31 497.5,165.5C 498.088,168.305 496.755,169.972 493.5,170.5 Z"/></g>
<g><path style="opacity:1" fill="#1e1e1e" d="M 573.5,121.5 C 574.496,121.414 575.329,121.748 576,122.5C 576.499,126.486 576.666,130.486 576.5,134.5C 583.5,134.5 590.5,134.5 597.5,134.5C 597.67,135.822 597.337,136.989 596.5,138C 589.842,138.5 583.175,138.666 576.5,138.5C 576.334,146.84 576.5,155.173 577,163.5C 578.695,167.863 581.862,169.53 586.5,168.5C 591.156,168.258 595.656,167.258 600,165.5C 601.28,165.613 602.113,166.28 602.5,167.5C 597.426,170.012 592.092,171.678 586.5,172.5C 580.276,172.481 575.776,169.814 573,164.5C 572.832,155.814 572.332,147.148 571.5,138.5C 560.9,136.062 561.233,134.728 572.5,134.5C 572.231,130.069 572.564,125.735 573.5,121.5 Z"/></g>
<g><path style="opacity:1" fill="#151515" d="M 839.5,149.5 C 834.604,147.554 829.271,146.887 823.5,147.5C 822.596,146.791 822.263,145.791 822.5,144.5C 828.167,144.5 833.833,144.5 839.5,144.5C 839.5,138.167 839.5,131.833 839.5,125.5C 841.167,125.5 842.833,125.5 844.5,125.5C 844.5,131.833 844.5,138.167 844.5,144.5C 850.167,144.5 855.833,144.5 861.5,144.5C 861.67,145.822 861.337,146.989 860.5,148C 855.177,148.499 849.844,148.666 844.5,148.5C 844.5,154.833 844.5,161.167 844.5,167.5C 842.856,167.714 841.356,167.38 840,166.5C 839.501,160.843 839.334,155.176 839.5,149.5 Z"/></g>
<g><path style="opacity:1" fill="#1c1c1c" d="M 808.5,147.5 C 803.489,147.334 798.489,147.501 793.5,148C 793,148.5 792.5,149 792,149.5C 791.501,155.491 791.334,161.491 791.5,167.5C 790.811,168.774 789.977,168.774 789,167.5C 788.5,161.175 788.334,154.842 788.5,148.5C 783.156,148.666 777.823,148.499 772.5,148C 771.663,146.989 771.33,145.822 771.5,144.5C 777.167,144.5 782.833,144.5 788.5,144.5C 788.5,138.167 788.5,131.833 788.5,125.5C 789.833,125.5 791.167,125.5 792.5,125.5C 792.5,131.833 792.5,138.167 792.5,144.5C 798.537,144.171 804.537,144.504 810.5,145.5C 810.145,146.522 809.478,147.189 808.5,147.5 Z"/></g>
<g><path style="opacity:1" fill="#080808" d="M 239.5,130.5 C 248.992,131.406 258.325,133.239 267.5,136C 269.166,139.131 268.166,140.631 264.5,140.5C 255.793,139.198 247.293,137.198 239,134.5C 238.421,133.072 238.588,131.738 239.5,130.5 Z"/></g>
<g><path style="opacity:1" fill="#141414" d="M 317.5,132.5 C 324.097,131.969 329.763,133.969 334.5,138.5C 335.262,137.372 335.929,136.205 336.5,135C 339.817,134.502 343.15,134.335 346.5,134.5C 346.5,135.5 346.5,136.5 346.5,137.5C 344.533,137.261 342.699,137.594 341,138.5C 340.667,151.5 340.333,164.5 340,177.5C 334.08,186.906 325.58,190.24 314.5,187.5C 314.5,185.833 314.5,184.167 314.5,182.5C 319.844,182.666 325.177,182.499 330.5,182C 334.84,179.647 336.507,175.98 335.5,171C 335.167,168.833 334.833,166.667 334.5,164.5C 322.348,173.918 312.515,171.918 305,158.5C 301.871,146.175 306.038,137.509 317.5,132.5 Z"/></g>
<g><path style="opacity:1" fill="#161616" d="M 385.5,133.5 C 390.198,133.059 393.864,134.726 396.5,138.5C 395.833,138.833 395.167,139.167 394.5,139.5C 391.336,137.806 388.002,137.306 384.5,138C 380.244,141.045 376.077,144.212 372,147.5C 371.333,153.5 371.333,159.5 372,165.5C 377.208,167.259 382.708,168.093 388.5,168C 388.957,168.414 389.291,168.914 389.5,169.5C 378.833,170.833 368.167,170.833 357.5,169.5C 357.709,168.914 358.043,168.414 358.5,168C 361.426,167.782 364.26,167.282 367,166.5C 367.667,157.167 367.667,147.833 367,138.5C 364.619,137.565 362.119,137.232 359.5,137.5C 359.5,136.5 359.5,135.5 359.5,134.5C 363.5,134.5 367.5,134.5 371.5,134.5C 371.5,136.833 371.5,139.167 371.5,141.5C 374.439,141.082 376.772,139.582 378.5,137C 380.713,135.384 383.047,134.217 385.5,133.5 Z"/></g>
<g><path style="opacity:1" fill="#151515" d="M 423.5,132.5 C 430.932,131.805 436.765,134.472 441,140.5C 441.333,149.167 441.667,157.833 442,166.5C 444.501,166.95 446.667,167.95 448.5,169.5C 443.635,170.966 438.968,170.632 434.5,168.5C 430.073,170.15 425.573,171.484 421,172.5C 411.556,171.733 407.222,166.733 408,157.5C 410.175,154.624 412.675,152.124 415.5,150C 422.771,148.7 430.104,148.2 437.5,148.5C 438.204,144.197 436.87,140.697 433.5,138C 426.355,137.109 419.355,137.609 412.5,139.5C 412.286,137.856 412.62,136.356 413.5,135C 417.09,134.689 420.423,133.856 423.5,132.5 Z"/></g>
<g><path style="opacity:1" fill="#131313" d="M 734.5,132.5 C 739.382,132.193 744.049,133.026 748.5,135C 752.392,138.226 755.558,142.059 758,146.5C 758.667,148.833 758.667,151.167 758,153.5C 746.247,154.488 734.414,154.821 722.5,154.5C 726.07,166.46 734.07,170.96 746.5,168C 750.033,167.167 753.199,165.667 756,163.5C 757.059,163.63 757.892,164.13 758.5,165C 747.963,173.8 736.796,174.634 725,167.5C 713.755,151.694 716.922,140.027 734.5,132.5 Z"/></g>
<g><path style="opacity:1" fill="#191919" d="M 517.5,134.5 C 522.762,134.195 527.928,134.529 533,135.5C 533.5,146.161 533.667,156.828 533.5,167.5C 538.511,167.334 543.511,167.501 548.5,168C 548.957,168.414 549.291,168.914 549.5,169.5C 537.5,170.833 525.5,170.833 513.5,169.5C 513.709,168.914 514.043,168.414 514.5,168C 519.75,167.807 524.917,167.307 530,166.5C 530.5,157.173 530.666,147.839 530.5,138.5C 526.486,138.666 522.486,138.499 518.5,138C 517.663,136.989 517.33,135.822 517.5,134.5 Z"/></g>
<g><path style="opacity:1" fill="#181818" d="M 614.5,134.5 C 617.5,134.5 620.5,134.5 623.5,134.5C 623.334,143.839 623.5,153.173 624,162.5C 626.451,168.089 630.617,169.922 636.5,168C 640.813,166.694 644.313,164.194 647,160.5C 647.667,153.167 647.667,145.833 647,138.5C 644.281,137.556 641.448,137.223 638.5,137.5C 638.5,136.5 638.5,135.5 638.5,134.5C 642.767,134.203 646.934,134.536 651,135.5C 651.5,146.161 651.667,156.828 651.5,167.5C 653.346,167.222 654.68,167.889 655.5,169.5C 652.914,170.48 650.247,170.813 647.5,170.5C 647.719,169.325 647.386,168.325 646.5,167.5C 642.61,169.278 638.61,170.778 634.5,172C 626.756,173.253 621.922,170.086 620,162.5C 619.667,154.5 619.333,146.5 619,138.5C 617.644,137.62 616.144,137.286 614.5,137.5C 614.5,136.5 614.5,135.5 614.5,134.5 Z"/></g>
<g><path style="opacity:1" fill="#f8f8f8" d="M 316.5,137.5 C 330.999,136.494 337.166,143.161 335,157.5C 327.785,168.254 319.452,169.254 310,160.5C 305.021,150.665 307.187,142.998 316.5,137.5 Z"/></g>
<g><path style="opacity:1" fill="#f8f8f8" d="M 678.5,137.5 C 693.992,135.497 701.158,142.163 700,157.5C 696.054,166.49 689.22,169.99 679.5,168C 666.594,158.248 666.26,148.082 678.5,137.5 Z"/></g>
<g><path style="opacity:1" fill="#f8f8f8" d="M 752.5,148.5 C 742.442,149.14 732.775,148.473 723.5,146.5C 726.294,139.997 731.294,136.997 738.5,137.5C 742.198,137.158 745.531,137.991 748.5,140C 750.006,142.333 751.673,144.5 753.5,146.5C 753.457,147.416 753.124,148.083 752.5,148.5 Z"/></g>
<g><path style="opacity:1" fill="#090909" d="M 131.5,145.5 C 134.907,146.174 136.24,148.341 135.5,152C 136.24,155.659 134.907,157.826 131.5,158.5C 131.5,154.167 131.5,149.833 131.5,145.5 Z"/></g>
<g><path style="opacity:1" fill="#101010" d="M 155.5,144.5 C 157.959,145.874 158.959,148.04 158.5,151C 158.809,153.664 157.975,155.83 156,157.5C 153.346,153.145 153.179,148.812 155.5,144.5 Z"/></g>
<g><path style="opacity:1" fill="#666666" d="M 823.5,147.5 C 829.271,146.887 834.604,147.554 839.5,149.5C 834.065,148.877 828.732,148.21 823.5,147.5 Z"/></g>
<g><path style="opacity:1" fill="#c5c5c5" d="M 723.5,146.5 C 732.775,148.473 742.442,149.14 752.5,148.5C 742.681,149.494 732.681,149.827 722.5,149.5C 722.263,148.209 722.596,147.209 723.5,146.5 Z"/></g>
<g><path style="opacity:1" fill="#f4f4f4" d="M 422.5,151.5 C 426.967,151.133 431.3,151.633 435.5,153C 437.478,155.497 437.978,158.331 437,161.5C 431.019,167.573 423.852,169.74 415.5,168C 412.405,164.699 411.738,160.866 413.5,156.5C 416.698,155.007 419.698,153.34 422.5,151.5 Z"/></g>
<g><path style="opacity:1" fill="#4e4e4e" d="M 808.5,147.5 C 804.018,148.326 799.351,148.826 794.5,149C 794,149.5 793.5,150 793,150.5C 792.827,156.348 792.327,162.015 791.5,167.5C 791.334,161.491 791.501,155.491 792,149.5C 792.5,149 793,148.5 793.5,148C 798.489,147.501 803.489,147.334 808.5,147.5 Z"/></g>
<g><path style="opacity:1" fill="#0b0b0b" d="M 174.5,157.5 C 176.735,158.286 177.735,159.952 177.5,162.5C 173.046,187.222 158.379,198.056 133.5,195C 124.2,191.534 118.2,185.034 115.5,175.5C 115.833,174.833 116.167,174.167 116.5,173.5C 127.522,192.334 142.522,196.167 161.5,185C 168.635,177.228 172.968,168.061 174.5,157.5 Z"/></g>
<g><path style="opacity:1" fill="#b4b4b4" d="M 493.5,170.5 C 489.956,172.174 486.123,173.174 482,173.5C 480.014,173.431 478.514,172.765 477.5,171.5C 478.908,172.061 480.408,172.395 482,172.5C 485.785,171.515 489.618,170.849 493.5,170.5 Z"/></g>
</svg>
