<?xml version="1.0" standalone="no"?>
<!DOCTYPE svg PUBLIC "-//W3C//DTD SVG 20010904//EN"
 "http://www.w3.org/TR/2001/REC-SVG-20010904/DTD/svg10.dtd">
<svg version="1.0" xmlns="http://www.w3.org/2000/svg"
 width="811.000000pt" height="484.000000pt" viewBox="0 0 811.000000 484.000000"
 preserveAspectRatio="xMidYMid meet">

<g transform="translate(0.000000,484.000000) scale(0.100000,-0.100000)"
fill="#000000" stroke="none">
<path d="M3378 4140 c-37 -5 -93 -16 -125 -25 -415 -117 -700 -371 -758 -675
-8 -43 -16 -64 -25 -62 -30 7 -281 -20 -352 -38 -185 -46 -328 -122 -447 -235
-89 -86 -136 -159 -172 -268 l-25 -78 -81 -33 c-151 -61 -294 -164 -358 -259
-66 -97 -98 -246 -75 -359 41 -211 255 -400 539 -476 87 -23 115 -25 291 -26
l195 -1 30 -75 c17 -42 45 -101 62 -133 98 -170 349 -348 608 -430 335 -105
739 -93 1089 34 l84 30 72 -36 c95 -48 279 -109 405 -134 660 -133 1359 78
1684 509 75 100 123 198 158 321 l26 97 196 5 c167 4 210 8 292 30 314 82 550
271 630 504 32 92 32 240 1 326 -82 225 -313 412 -613 496 -137 38 -334 48
-530 25 -47 -6 -47 -5 -80 43 -130 190 -344 324 -635 397 -169 43 -452 39
-646 -8 l-97 -23 -23 26 c-13 14 -41 52 -63 85 -81 121 -219 237 -379 318
-115 58 -296 115 -401 128 -102 11 -377 11 -477 0z"/>
</g>
</svg>
